<?xml version="1.0" standalone="no"?>
<!DOCTYPE svg PUBLIC "-//W3C//DTD SVG 20010904//EN"
 "http://www.w3.org/TR/2001/REC-SVG-20010904/DTD/svg10.dtd">
<svg version="1.0" xmlns="http://www.w3.org/2000/svg"
 width="1000.000000pt" height="1000.000000pt" viewBox="0 0 1000.000000 1000.000000"
 preserveAspectRatio="xMidYMid meet">

<g transform="translate(0.000000,1000.000000) scale(0.100000,-0.100000)"
fill="#000000" stroke="none">
<path d="M4234 8851 c10 -16 -5 -40 -22 -35 -9 2 -1 -3 18 -12 24 -12 30 -18
20 -22 -18 -6 -30 -22 -30 -41 0 -10 3 -11 14 -2 11 9 15 9 18 0 3 -8 11 -10
22 -6 13 5 17 14 14 32 -3 14 -2 25 2 25 4 0 10 11 12 25 6 27 -10 45 -22 26
-5 -9 -10 -8 -20 4 -13 16 -35 21 -26 6z"/>
<path d="M4465 8850 c-3 -5 -1 -10 4 -10 6 0 11 5 11 10 0 6 -2 10 -4 10 -3 0
-8 -4 -11 -10z"/>
<path d="M4406 8831 c-4 -5 -1 -13 4 -16 8 -5 6 -13 -6 -26 -16 -18 -16 -19 4
-19 21 0 38 -15 25 -23 -5 -2 -3 -2 4 -1 7 2 15 -1 18 -6 9 -15 27 -12 22 3
-2 6 -10 11 -16 10 -6 -2 -11 6 -11 17 l0 20 20 -20 c24 -24 60 -29 41 -6 -9
11 -9 15 0 18 8 3 10 11 6 22 -5 13 -14 17 -32 14 -13 -3 -26 -2 -27 2 -5 13
-46 21 -52 11z"/>
<path d="M4200 8786 c0 -9 5 -16 10 -16 6 0 10 4 10 9 0 6 -4 13 -10 16 -5 3
-10 -1 -10 -9z"/>
<path d="M4147 8783 c-4 -3 -7 -11 -7 -17 0 -6 5 -5 12 2 6 6 9 14 7 17 -3 3
-9 2 -12 -2z"/>
<path d="M4565 8760 c3 -5 11 -10 16 -10 6 0 7 5 4 10 -3 6 -11 10 -16 10 -6
0 -7 -4 -4 -10z"/>
<path d="M4384 8718 c-4 -6 -3 -8 4 -4 6 3 15 -2 21 -11 9 -16 10 -16 11 -2 0
20 -27 33 -36 17z"/>
<path d="M4094 8707 c-3 -9 -1 -24 6 -32 10 -12 10 -15 -2 -15 -8 0 -20 6 -28
13 -8 6 -4 -1 10 -17 14 -16 19 -26 13 -22 -8 5 -13 1 -13 -9 0 -11 5 -15 15
-11 8 3 21 -1 29 -9 20 -21 26 -19 26 10 0 17 4 23 14 19 9 -3 15 4 18 21 4
16 1 24 -6 22 -6 -2 -10 -11 -8 -20 2 -11 -3 -14 -18 -10 -25 7 -25 8 0 33 26
26 25 35 -5 35 -14 0 -25 -4 -25 -10 0 -5 -4 -3 -10 5 -8 12 -10 12 -16 -3z"/>
<path d="M4344 8696 c-8 -22 3 -33 18 -18 9 9 9 15 0 24 -9 9 -13 7 -18 -6z"/>
<path d="M4565 8699 c4 -6 12 -8 19 -6 8 3 12 -5 12 -23 0 -16 -3 -27 -8 -24
-4 3 -8 11 -8 18 0 7 -12 18 -26 25 -23 10 -25 9 -19 -8 3 -11 1 -22 -5 -26
-19 -12 11 -37 37 -30 25 6 30 -3 11 -25 -7 -8 -4 -7 8 3 11 9 23 14 27 11 3
-4 14 -3 24 0 15 6 15 9 3 16 -12 7 -11 12 4 29 19 21 19 21 -7 21 -19 0 -25
4 -21 15 5 11 -1 15 -26 15 -19 0 -29 -4 -25 -11z"/>
<path d="M4440 8670 c-7 -16 -15 -29 -19 -28 -3 1 -14 -2 -25 -7 -10 -4 -21
-4 -25 1 -3 5 -18 15 -33 21 -22 10 -26 10 -22 -1 9 -24 -42 -16 -53 8 -5 11
-8 15 -6 7 2 -9 -3 -12 -17 -8 -11 3 -18 1 -14 -4 3 -5 12 -9 19 -9 16 0 48
-54 38 -64 -3 -3 -12 2 -20 12 -13 15 -13 15 -3 -6 6 -12 9 -26 6 -31 -3 -4
-1 -23 4 -40 8 -29 6 -33 -16 -43 -13 -6 -24 -16 -24 -21 0 -5 8 -3 17 4 15
13 16 11 10 -11 -6 -24 -5 -24 8 -6 8 11 15 22 15 26 0 3 9 11 20 17 16 11 25
9 57 -9 20 -12 33 -17 29 -10 -5 8 1 12 19 12 18 0 28 -7 35 -25 5 -14 12 -25
16 -25 3 0 4 7 0 15 -6 16 13 21 30 8 5 -5 -5 6 -23 24 -18 18 -33 40 -33 50
0 15 2 16 10 3 8 -11 10 -8 8 15 -1 17 2 37 7 44 5 10 4 12 -3 7 -23 -14 -12
41 11 58 17 12 17 14 3 9 -15 -5 -17 -2 -11 15 10 32 -1 27 -15 -8z m-43 -62
c53 -42 -9 -125 -72 -96 -14 6 -25 14 -26 17 0 3 -2 18 -4 33 -7 52 58 81 102
46z"/>
<path d="M4203 8633 c-16 -6 -17 -29 -1 -39 7 -5 8 -3 3 6 -4 7 -2 16 6 21 16
9 10 18 -8 12z"/>
<path d="M4212 8568 c5 -15 28 -18 29 -3 0 6 -7 12 -17 13 -10 3 -15 -1 -12
-10z"/>
<path d="M4470 8566 c0 -9 7 -16 16 -16 17 0 14 22 -4 28 -7 2 -12 -3 -12 -12z"/>
<path d="M4640 8550 c0 -5 5 -10 10 -10 6 0 10 5 10 10 0 6 -4 10 -10 10 -5 0
-10 -4 -10 -10z"/>
<path d="M4135 8520 c3 -5 8 -10 11 -10 2 0 4 5 4 10 0 6 -5 10 -11 10 -5 0
-7 -4 -4 -10z"/>
<path d="M4502 8510 c-7 -11 -8 -20 -2 -20 5 0 14 9 20 20 6 11 7 20 3 20 -5
0 -14 -9 -21 -20z"/>
<path d="M4560 8506 c0 -20 -4 -26 -17 -24 -12 2 -19 -4 -21 -19 -2 -13 2 -23
8 -23 7 0 10 7 6 15 -4 10 0 14 14 12 24 -4 39 -17 18 -17 -8 0 -20 -12 -27
-26 -10 -23 -10 -25 9 -19 11 4 20 2 20 -4 0 -6 5 -11 11 -11 5 0 7 4 4 10 -4
6 1 7 11 3 14 -5 16 -2 12 20 -3 15 -2 27 1 27 3 0 11 11 18 25 11 26 2 42
-18 30 -5 -4 -19 1 -30 11 -18 16 -19 16 -19 -10z"/>
<path d="M4070 8500 c0 -5 5 -12 11 -15 7 -5 4 -14 -7 -26 -16 -18 -16 -19 11
-19 20 0 26 -4 21 -15 -4 -11 2 -15 20 -15 14 0 23 4 19 10 -4 6 -11 8 -16 5
-5 -4 -9 3 -9 14 0 11 5 23 12 27 7 4 8 3 4 -4 -4 -6 5 -19 19 -28 28 -19 44
-12 26 10 -9 11 -9 15 0 18 19 6 2 38 -20 38 -11 0 -22 -6 -24 -12 -4 -9 -6
-8 -6 2 -1 16 -61 26 -61 10z"/>
<path d="M4340 8434 c0 -9 5 -14 12 -12 18 6 21 28 4 28 -9 0 -16 -7 -16 -16z"/>
<path d="M4630 8440 c0 -5 5 -10 11 -10 5 0 7 5 4 10 -3 6 -8 10 -11 10 -2 0
-4 -4 -4 -10z"/>
<path d="M4280 8421 c0 -5 7 -12 16 -15 24 -9 27 -7 10 9 -17 17 -26 19 -26 6z"/>
<path d="M4419 8384 c-10 -12 -10 -20 -1 -35 14 -22 9 -24 -21 -8 -22 11 -22
11 1 -10 23 -22 30 -37 12 -26 -5 3 -10 -1 -10 -11 0 -11 6 -15 20 -11 10 3
24 -1 31 -9 18 -22 27 -17 21 13 -4 21 -2 25 12 20 9 -4 16 -2 16 3 0 6 -8 10
-18 10 -29 0 -32 10 -11 31 23 23 25 44 4 36 -8 -4 -17 -2 -20 3 -9 14 -21 12
-36 -6z m18 -16 c-3 -8 -6 -5 -6 6 -1 11 2 17 5 13 3 -3 4 -12 1 -19z"/>
<path d="M4235 8380 c4 -6 11 -8 16 -5 5 4 9 -3 9 -14 0 -12 -4 -21 -10 -21
-5 0 -10 3 -10 8 0 10 -41 35 -47 28 -3 -3 0 -12 7 -21 8 -10 9 -15 1 -15 -17
0 -13 -30 4 -36 8 -4 22 -1 29 5 8 7 15 8 18 2 5 -14 58 -26 58 -13 0 6 -5 14
-11 17 -7 5 -4 14 7 26 16 18 16 19 -11 19 -20 0 -26 4 -21 15 4 11 -2 15 -20
15 -14 0 -23 -4 -19 -10z"/>
<path d="M4490 8344 c0 -8 5 -12 10 -9 6 3 10 10 10 16 0 5 -4 9 -10 9 -5 0
-10 -7 -10 -16z"/>
<path d="M4547 8353 c-4 -3 -7 -11 -7 -17 0 -6 5 -5 12 2 6 6 9 14 7 17 -3 3
-9 2 -12 -2z"/>
<path d="M4235 8280 c-3 -5 -1 -10 4 -10 6 0 11 5 11 10 0 6 -2 10 -4 10 -3 0
-8 -4 -11 -10z"/>
<path d="M4875 8134 c-17 -13 -27 -24 -24 -24 16 0 69 23 69 30 0 19 -17 17
-45 -6z"/>
<path d="M3600 8088 c0 -3 -3 -15 -7 -25 -6 -17 -6 -17 14 0 11 9 34 17 51 17
l32 0 0 -98 c0 -57 -5 -103 -11 -109 -8 -8 -1 -12 25 -15 32 -4 34 -2 21 12
-11 12 -15 42 -15 113 l0 97 40 0 c27 0 42 -6 49 -17 9 -16 10 -16 11 4 0 21
-5 22 -105 25 -58 2 -105 0 -105 -4z"/>
<path d="M3914 8089 c-69 -20 -105 -110 -71 -176 29 -55 109 -78 167 -48 44
23 60 53 60 113 0 47 -4 57 -31 83 -17 16 -39 29 -49 29 -10 0 -24 2 -32 4 -7
2 -27 0 -44 -5z m82 -17 c47 -32 61 -140 24 -180 -26 -28 -65 -37 -96 -23 -32
14 -64 68 -64 109 0 36 23 87 42 95 20 8 82 8 94 -1z"/>
<path d="M4100 8088 c0 -3 -3 -15 -7 -25 -6 -17 -6 -17 14 0 11 9 34 17 51 17
l32 0 0 -101 c0 -80 -3 -104 -15 -113 -12 -9 -7 -11 24 -11 35 0 38 2 25 16
-10 11 -14 42 -14 112 l0 97 40 0 c27 0 42 -6 49 -17 9 -16 10 -16 11 4 0 21
-5 22 -105 25 -58 2 -105 0 -105 -4z"/>
<path d="M5409 8091 c-46 -15 -69 -31 -84 -61 -49 -95 32 -192 148 -177 39 5
57 19 57 44 0 7 -11 1 -25 -12 -57 -58 -165 -1 -165 88 0 35 24 83 49 97 35
18 99 12 113 -10 17 -27 26 -25 20 5 -3 17 -11 25 -26 25 -11 0 -30 2 -41 5
-11 2 -32 0 -46 -4z"/>
<path d="M2928 8083 c15 -6 18 -213 2 -213 -5 0 -10 -4 -10 -8 0 -4 17 -6 38
-3 20 2 31 6 25 8 -9 3 -13 34 -13 109 0 103 0 104 24 104 64 0 76 -91 16
-113 -10 -4 -7 -6 8 -6 29 -1 62 32 62 63 0 40 -43 66 -109 65 -31 0 -50 -3
-43 -6z"/>
<path d="M3123 8079 c14 -8 17 -25 17 -101 0 -65 -4 -96 -14 -107 -13 -14 -10
-16 25 -16 31 0 36 2 24 11 -10 7 -15 28 -15 58 l0 46 70 0 70 0 0 -49 c0 -31
-5 -51 -12 -54 -7 -2 4 -6 25 -8 20 -3 37 -1 37 3 0 4 -4 8 -10 8 -6 0 -10 41
-10 104 0 91 2 105 18 109 9 3 -3 5 -28 5 -25 0 -39 -2 -32 -5 7 -3 12 -24 12
-54 l0 -49 -70 0 -70 0 0 45 c0 31 5 47 18 54 13 8 7 10 -28 10 -35 0 -41 -2
-27 -10z"/>
<path d="M3399 8071 c31 -31 71 -120 71 -158 0 -21 -7 -41 -16 -48 -13 -9 -9
-10 21 -7 26 3 34 7 26 15 -21 21 -11 75 24 136 20 33 43 65 53 70 13 8 8 10
-23 10 -24 0 -33 -3 -23 -7 15 -6 14 -13 -14 -61 l-31 -54 -24 48 c-14 26 -22
53 -19 61 4 10 -4 14 -29 14 -34 0 -35 0 -16 -19z"/>
<path d="M4353 8079 c14 -8 17 -25 17 -101 0 -65 -4 -96 -14 -107 -13 -14 -7
-16 66 -15 56 1 83 6 89 15 14 23 10 36 -5 16 -11 -14 -25 -17 -63 -15 l-48 3
-3 48 -3 47 35 0 c23 0 39 -6 45 -17 8 -14 10 -10 10 22 0 36 -1 38 -13 22
-10 -12 -24 -17 -43 -15 -26 3 -28 7 -31 51 l-3 47 40 0 c30 0 44 -6 55 -22
l16 -22 0 27 0 27 -82 0 c-61 -1 -78 -3 -65 -11z"/>
<path d="M4558 8083 c15 -6 17 -204 2 -219 -6 -6 5 -9 31 -9 32 0 37 2 24 11
-9 7 -15 27 -15 53 0 59 28 55 74 -9 38 -53 38 -53 103 -54 30 -1 39 2 32 11
-7 7 -5 24 5 47 13 32 19 36 51 36 29 0 37 -5 46 -27 5 -15 8 -36 5 -48 -4
-17 0 -20 29 -20 39 0 42 3 20 19 -8 6 -30 56 -48 110 -18 55 -38 101 -43 103
-10 3 -18 -14 -61 -132 -35 -97 -45 -106 -80 -72 -16 14 -36 39 -45 55 -17 28
-17 30 2 47 11 10 20 31 20 46 0 41 -32 59 -105 58 -33 0 -54 -3 -47 -6z m103
-13 c13 -7 19 -21 19 -43 0 -40 -15 -57 -52 -57 -27 0 -28 1 -28 55 0 49 2 55
21 55 11 0 29 -5 40 -10z m229 -92 c0 -14 -8 -18 -31 -18 -26 0 -30 3 -24 18
4 9 12 30 18 47 l11 30 12 -30 c7 -17 13 -38 14 -47z"/>
<path d="M5013 8079 c14 -8 17 -25 17 -105 0 -75 -3 -96 -15 -100 -27 -11 -16
-20 24 -19 35 0 38 2 25 16 -10 11 -14 43 -14 112 0 95 1 97 23 97 39 0 59
-22 55 -60 -2 -25 -10 -38 -28 -47 -22 -11 -23 -13 -5 -13 11 0 31 7 43 16 33
23 28 83 -8 101 -31 16 -144 18 -117 2z"/>
<path d="M5203 8079 c24 -14 26 -196 1 -213 -13 -10 -8 -12 25 -12 23 1 41 4
41 9 0 4 -4 7 -10 7 -16 0 -13 207 3 213 6 3 -8 6 -33 6 -35 0 -41 -2 -27 -10z"/>
<path d="M5641 8073 c-5 -11 -24 -57 -40 -103 -17 -46 -37 -90 -45 -99 -13
-14 -12 -16 14 -16 20 0 26 3 19 12 -7 7 -5 24 5 48 14 33 18 36 52 33 33 -3
39 -8 49 -38 7 -20 9 -40 4 -46 -6 -7 1 -9 21 -6 22 3 28 8 21 16 -5 6 -24 54
-42 106 -36 109 -43 120 -58 93z m38 -105 c1 -5 -15 -8 -34 -8 l-34 0 17 46
17 45 17 -38 c9 -21 17 -41 17 -45z"/>
<path d="M3585 7430 c-15 -16 -15 -20 -3 -20 8 0 23 9 33 20 15 16 15 20 3 20
-8 0 -23 -9 -33 -20z"/>
<path d="M3695 7399 c-10 -26 -1 -234 10 -232 13 4 19 223 6 236 -7 7 -12 5
-16 -4z"/>
<path d="M5074 7397 c-11 -28 1 -230 14 -235 9 -3 12 26 12 122 0 80 -4 126
-10 126 -6 0 -13 -6 -16 -13z"/>
<path d="M3540 7368 c-38 -62 -20 -187 30 -203 23 -7 56 8 70 35 5 10 10 48
10 83 0 50 -5 70 -21 91 -29 37 -64 34 -89 -6z m70 -7 c5 -11 10 -49 10 -84 0
-50 -4 -68 -19 -81 -18 -16 -20 -16 -35 6 -21 30 -21 126 0 156 19 27 30 28
44 3z"/>
<path d="M4112 7283 l3 -118 44 0 c27 0 46 5 49 13 2 8 -8 12 -33 12 l-36 0 3
43 c3 39 5 42 31 39 19 -3 27 1 27 12 0 11 -9 16 -30 16 -28 0 -30 3 -30 35 0
32 2 35 30 35 20 0 30 5 30 15 0 11 -12 15 -45 15 l-46 0 3 -117z"/>
<path d="M4860 7375 c0 -10 7 -15 18 -13 21 4 19 22 -2 26 -10 2 -16 -3 -16
-13z"/>
<path d="M3789 7321 c-20 -16 -24 -29 -24 -71 0 -43 4 -55 24 -71 27 -22 62
-22 69 0 3 9 -1 11 -16 7 -24 -8 -52 17 -52 45 0 18 6 20 38 17 31 -2 37 0 40
18 3 20 -32 74 -48 74 -4 0 -18 -9 -31 -19z m49 -34 c3 -12 -3 -17 -22 -17
-28 0 -29 1 -20 25 8 20 38 15 42 -8z"/>
<path d="M3925 7316 c-33 -33 -35 -106 -5 -136 26 -26 42 -25 68 3 37 40 27
123 -18 147 -16 9 -25 6 -45 -14z m49 -22 c20 -52 -4 -130 -32 -102 -13 13
-17 100 -5 111 11 12 31 7 37 -9z"/>
<path d="M4258 7329 c-28 -16 -23 -65 8 -85 31 -21 30 -59 -3 -59 -33 0 -39
-13 -9 -21 19 -4 33 -1 46 11 28 26 25 50 -11 83 -33 31 -32 52 2 52 12 0 19
5 17 13 -6 16 -29 19 -50 6z"/>
<path d="M4373 7329 c-33 -12 -32 -63 3 -85 31 -21 30 -59 -3 -59 -33 0 -39
-13 -9 -21 19 -4 33 -1 46 11 28 26 25 52 -11 85 -33 29 -32 50 2 50 10 0 19
4 19 9 0 14 -23 19 -47 10z"/>
<path d="M4486 7319 c-22 -17 -26 -28 -26 -70 0 -68 34 -102 84 -83 22 9 20
27 -3 21 -27 -7 -51 11 -51 38 0 21 4 24 35 21 33 -4 35 -2 35 29 0 18 -8 39
-18 48 -23 21 -24 21 -56 -4z m47 -29 c4 -16 0 -20 -19 -20 -13 0 -24 6 -24
13 0 32 35 37 43 7z"/>
<path d="M4645 7330 c-4 -6 -15 -8 -26 -5 -18 6 -19 1 -19 -79 0 -70 3 -86 15
-86 12 0 15 14 15 70 0 56 3 72 16 77 24 9 34 -15 34 -85 0 -47 3 -63 13 -59
8 2 12 27 12 76 0 60 -3 75 -19 87 -24 17 -33 18 -41 4z"/>
<path d="M4773 7316 c-23 -20 -28 -32 -28 -71 0 -37 5 -51 24 -66 26 -21 52
-22 59 -1 2 7 -5 12 -17 12 -11 0 -25 9 -32 21 -14 26 -3 88 17 95 50 15 49
15 34 24 -21 14 -26 13 -57 -14z"/>
<path d="M4864 7327 c-10 -27 1 -160 14 -165 9 -3 12 18 12 82 0 78 -12 118
-26 83z"/>
<path d="M4953 7333 c-22 -8 -14 -22 14 -25 33 -4 46 -38 15 -38 -41 0 -70
-72 -39 -98 6 -6 29 -10 50 -9 l37 1 0 71 c0 89 -24 120 -77 98z m47 -107 c0
-25 -22 -51 -33 -39 -9 8 -9 48 0 56 14 15 33 6 33 -17z"/>
<path d="M4029 6362 c-6 -18 -17 -32 -24 -32 -26 0 -56 -52 -53 -89 3 -33 6
-36 34 -36 l32 -1 17 89 c17 90 14 126 -6 69z m-15 -79 c-15 -62 -44 -86 -44
-37 0 33 17 64 36 64 11 0 13 -7 8 -27z"/>
<path d="M4195 6378 c-8 -24 -34 -173 -30 -176 9 -9 25 11 25 31 0 12 6 50 14
85 7 35 9 65 4 68 -4 3 -10 -1 -13 -8z"/>
<path d="M4517 6372 c-10 -10 -17 -24 -17 -30 0 -7 -4 -12 -8 -12 -4 0 -8 -17
-8 -37 0 -21 -2 -47 -4 -58 -3 -11 0 -21 5 -23 6 -2 14 19 19 47 6 35 14 51
27 54 27 7 31 -5 19 -59 -6 -26 -8 -49 -5 -53 9 -8 25 20 25 44 1 36 12 65 26
65 8 0 14 5 14 10 0 6 -4 10 -10 10 -17 0 -11 28 7 39 10 5 15 13 10 17 -9 9
-47 -25 -47 -43 0 -7 -11 -13 -26 -13 -20 0 -25 4 -20 16 3 9 6 18 6 20 0 2 7
4 15 4 8 0 15 5 15 10 0 16 -26 11 -43 -8z"/>
<path d="M5046 6378 c-3 -7 -12 -49 -21 -92 -14 -74 -14 -98 1 -83 12 12 41
177 33 183 -5 3 -11 -1 -13 -8z"/>
<path d="M3479 6378 c-15 -64 -34 -170 -30 -173 9 -9 61 -5 61 5 0 6 -9 10
-20 10 -23 0 -24 5 -6 88 7 35 9 65 4 68 -4 3 -8 4 -9 2z"/>
<path d="M4636 6373 c-11 -11 -6 -23 9 -23 8 0 15 4 15 9 0 13 -16 22 -24 14z"/>
<path d="M4775 6369 c-10 -15 3 -25 16 -12 7 7 7 13 1 17 -6 3 -14 1 -17 -5z"/>
<path d="M5096 6373 c-11 -11 -6 -23 9 -23 8 0 15 4 15 9 0 13 -16 22 -24 14z"/>
<path d="M3556 6308 c-22 -37 -27 -73 -12 -94 12 -15 16 -16 30 -5 11 10 16
10 16 2 0 -30 18 3 23 42 3 23 9 51 13 60 10 28 -52 23 -70 -5z m32 -55 c-7
-16 -18 -26 -23 -23 -14 7 -6 52 13 74 17 18 17 18 20 -3 2 -11 -3 -33 -10
-48z"/>
<path d="M3650 6288 c0 -53 9 -90 20 -83 12 7 61 117 56 123 -10 9 -25 -9 -31
-38 -10 -46 -25 -46 -25 -1 0 23 -4 41 -10 41 -5 0 -10 -19 -10 -42z"/>
<path d="M3755 6307 c-24 -37 -29 -81 -11 -96 13 -11 19 -11 31 -1 10 9 15 9
15 1 0 -6 5 -11 10 -11 6 0 10 15 10 33 0 17 4 47 9 65 9 31 9 32 -19 32 -20
0 -35 -8 -45 -23z m33 -54 c-7 -16 -18 -27 -23 -25 -16 5 -8 52 12 74 18 20
18 20 21 -1 2 -11 -3 -33 -10 -48z"/>
<path d="M3855 6320 c-2 -3 -6 -32 -10 -64 -6 -43 -5 -57 4 -52 6 4 11 13 11
19 0 34 22 87 37 87 16 0 15 -12 -3 -84 -4 -16 -2 -26 5 -26 13 0 24 39 25 89
1 34 -1 36 -32 36 -19 1 -35 -2 -37 -5z"/>
<path d="M4065 6275 c-8 -65 -4 -74 34 -73 26 1 30 5 35 42 4 23 9 51 13 64 3
12 1 22 -5 22 -6 0 -14 -17 -18 -37 -16 -87 -49 -103 -39 -18 5 35 4 55 -3 55
-5 0 -13 -25 -17 -55z"/>
<path d="M4240 6303 c-14 -19 -20 -38 -18 -62 3 -33 6 -36 35 -36 35 -1 33 -3
49 88 6 35 5 37 -19 37 -16 0 -34 -10 -47 -27z m40 -27 c-13 -59 -40 -79 -40
-30 0 32 17 64 34 64 11 0 12 -8 6 -34z"/>
<path d="M4384 6294 c-18 -43 -15 -73 8 -88 34 -21 79 53 63 104 -4 13 -15 20
-31 20 -19 0 -29 -8 -40 -36z m56 9 c0 -29 -23 -83 -35 -83 -17 0 -19 27 -5
64 8 23 40 38 40 19z"/>
<path d="M4627 6323 c-2 -5 -7 -26 -11 -48 -4 -22 -9 -48 -12 -57 -3 -11 0
-18 9 -18 10 0 17 16 21 50 4 28 9 57 12 65 6 15 -11 22 -19 8z"/>
<path d="M4687 6313 c-37 -42 -28 -113 13 -113 11 0 20 5 20 10 0 6 -6 10 -14
10 -8 0 -17 8 -21 19 -8 26 15 71 37 71 10 0 18 5 18 10 0 16 -36 11 -53 -7z"/>
<path d="M4766 6322 c-2 -4 -7 -25 -11 -47 -4 -22 -9 -48 -12 -59 -3 -12 -1
-17 8 -14 14 5 41 128 28 128 -4 0 -10 -3 -13 -8z"/>
<path d="M4815 6313 c-12 -33 -17 -113 -6 -113 6 0 11 8 11 18 0 38 21 92 37
92 11 0 14 -7 10 -22 -18 -80 -19 -90 -6 -86 15 5 33 92 25 114 -6 17 -64 14
-71 -3z"/>
<path d="M4931 6304 c-39 -50 -18 -129 24 -94 12 10 15 10 15 -1 1 -30 18 17
25 69 7 51 6 52 -18 52 -16 0 -34 -10 -46 -26z m39 -28 c-9 -40 -18 -56 -31
-56 -13 0 -11 47 3 70 21 33 37 25 28 -14z"/>
<path d="M5086 6315 c-3 -8 -8 -37 -12 -65 -8 -59 10 -70 20 -12 4 20 9 49 12
65 6 28 -10 38 -20 12z"/>
<path d="M5135 6310 c-4 -13 0 -31 10 -46 17 -26 13 -44 -11 -44 -8 0 -14 -5
-14 -11 0 -16 42 -6 53 13 8 12 7 24 -3 45 -8 15 -16 31 -18 36 -2 4 6 7 17 7
12 0 21 5 21 10 0 20 -48 11 -55 -10z"/>
<path d="M5641 6094 c0 -11 3 -14 6 -6 3 7 2 16 -1 19 -3 4 -6 -2 -5 -13z"/>
<path d="M5640 5720 c0 -5 -16 -25 -35 -45 -20 -19 -40 -35 -45 -35 -6 0 -10
-5 -10 -11 0 -5 5 -7 10 -4 6 3 10 -1 10 -9 0 -9 7 -16 15 -16 8 0 15 9 15 19
0 12 9 21 25 25 21 5 25 12 25 46 0 22 -2 40 -5 40 -3 0 -5 -4 -5 -10z"/>
<path d="M5649 5604 c-5 -16 -20 -24 -68 -34 -33 -7 -61 -16 -61 -20 0 -4 -12
-10 -27 -13 -59 -11 -139 -34 -162 -46 -16 -9 -26 -10 -33 -3 -15 15 -43 -3
-95 -58 -48 -50 -52 -60 -23 -60 36 0 71 -22 65 -41 -5 -14 8 -10 57 19 71 42
133 73 196 96 23 9 59 23 80 32 21 8 47 16 57 18 21 3 29 37 23 99 -2 26 -4
28 -9 11z"/>
<path d="M5080 5430 c0 -5 -18 -10 -39 -10 -22 0 -42 -4 -45 -9 -3 -4 6 -6 19
-3 20 3 25 0 25 -17 0 -14 -6 -21 -19 -21 -11 0 -23 -4 -26 -10 -16 -25 30 -6
61 25 30 32 43 55 29 55 -3 0 -5 -4 -5 -10z"/>
<path d="M4858 5343 c7 -3 16 -2 19 1 4 3 -2 6 -13 5 -11 0 -14 -3 -6 -6z"/>
<path d="M5425 5286 c-22 -14 -67 -39 -100 -56 -33 -18 -72 -41 -87 -51 -14
-10 -30 -19 -35 -19 -6 0 -15 -12 -21 -26 -7 -14 -17 -22 -22 -19 -6 3 -10 2
-10 -4 0 -5 -7 -17 -16 -25 -14 -14 -9 -16 48 -14 l63 1 117 119 c64 65 114
118 110 118 -4 0 -25 -11 -47 -24z"/>
<path d="M4586 5292 c-3 -5 1 -9 9 -9 8 0 12 4 9 9 -3 4 -7 8 -9 8 -2 0 -6 -4
-9 -8z"/>
<path d="M4420 5276 c0 -2 7 -7 16 -10 8 -3 12 -2 9 4 -6 10 -25 14 -25 6z"/>
<path d="M4346 5193 c-3 -4 -3 -22 0 -40 5 -25 2 -39 -12 -54 -16 -17 -16 -22
-4 -29 8 -6 26 -10 39 -10 14 0 32 -6 40 -13 13 -11 36 -12 121 -3 58 6 111
15 118 19 6 5 12 20 12 35 0 15 -4 22 -8 17 -10 -14 -62 -19 -62 -6 0 6 7 11
16 11 14 0 13 2 -1 17 -35 35 -81 50 -166 56 -48 3 -90 3 -93 0z"/>
<path d="M5506 5049 c-19 -39 -19 -39 -2 -39 8 0 16 14 19 33 6 43 2 45 -17 6z"/>
<path d="M4796 4995 c-12 -19 -14 -30 -6 -44 17 -32 12 -48 -17 -54 -51 -11
-57 -20 -40 -58 8 -19 21 -54 29 -79 12 -43 15 -45 48 -44 76 3 142 14 170 29
16 8 35 15 43 15 7 0 33 35 56 77 24 42 61 98 82 123 46 55 48 64 12 48 -39
-17 -335 -17 -341 0 -6 19 -18 14 -36 -13z m168 -78 c-9 -24 -77 -53 -109 -47
-18 3 -25 8 -18 13 6 4 17 6 25 4 7 -2 10 -2 6 0 -15 8 -8 26 19 49 24 21 29
22 54 8 16 -8 26 -20 23 -27z m-159 -77 c-27 -12 -43 -12 -25 0 8 5 22 9 30 9
10 0 8 -3 -5 -9z"/>
<path d="M4565 4990 c3 -5 12 -10 18 -10 7 0 25 -7 41 -15 28 -15 31 -15 55
10 l26 25 -73 0 c-46 0 -71 -4 -67 -10z"/>
<path d="M4455 4976 c-27 -12 -85 -71 -85 -86 0 -4 19 -13 43 -20 23 -7 46
-17 52 -22 19 -17 63 -8 82 16 11 13 30 26 44 28 22 4 23 5 4 12 -11 4 -30 13
-42 18 -17 8 -26 8 -38 -2 -14 -12 -18 -11 -26 1 -5 8 -7 20 -4 27 3 6 8 19
11 27 7 18 -2 18 -41 1z"/>
<path d="M5512 4954 c-2 -12 -103 -64 -123 -64 -11 0 -74 -44 -99 -70 -31 -32
-136 -118 -157 -129 -12 -6 -31 -11 -42 -11 -10 0 -43 -22 -73 -48 -29 -27
-107 -93 -173 -147 -66 -55 -122 -102 -125 -105 -5 -6 -184 -148 -236 -187
-122 -93 -243 -171 -268 -173 -4 0 -6 9 -3 20 6 23 -11 39 -23 21 -4 -7 -5
-23 -2 -37 2 -13 2 -24 -1 -24 -15 0 -67 62 -73 87 -4 15 -13 37 -20 48 -6 11
-15 44 -19 73 -4 28 -11 52 -17 52 -5 0 -7 -8 -4 -18 5 -16 -28 -112 -38 -112
-2 0 2 21 10 47 8 25 14 50 14 55 0 14 -33 9 -53 -9 -15 -13 -21 -15 -24 -5
-3 6 -16 12 -29 12 -18 0 -24 -5 -24 -22 l-1 -23 -17 21 c-16 19 -20 20 -60 6
-23 -7 -42 -20 -42 -28 0 -17 -17 -19 -23 -1 -8 23 -18 -1 -11 -28 10 -40 29
-41 98 -6 34 17 72 31 84 31 13 0 35 8 50 17 15 10 -22 -31 -83 -91 -90 -88
-99 -100 -50 -62 58 44 60 45 66 23 7 -28 4 -34 -35 -58 -47 -29 -9 -23 41 7
25 14 47 23 51 19 3 -3 -27 -36 -68 -73 -41 -37 -88 -80 -104 -95 -27 -27 -29
-27 -53 -11 -20 13 -31 14 -49 5 -28 -12 -29 -9 -9 23 9 13 13 31 9 40 -8 20
-62 22 -90 2 -12 -8 -26 -11 -33 -6 -23 14 -51 -1 -51 -27 0 -19 -4 -23 -19
-18 -10 3 -23 -1 -31 -10 -10 -12 -9 -16 5 -21 10 -4 25 -2 34 4 9 7 23 15 31
18 8 3 25 10 38 15 12 5 32 13 45 18 56 23 57 18 7 -36 -29 -31 -58 -66 -65
-77 -15 -25 -28 -86 -17 -84 4 1 15 -2 26 -7 11 -5 26 -3 37 3 26 16 26 16 25
-22 -1 -19 -3 -34 -6 -34 -25 2 -43 -5 -57 -22 -20 -23 -39 -26 -46 -7 -8 19
-27 -13 -27 -46 0 -23 -3 -27 -19 -22 -23 7 -26 2 -35 -48 -6 -34 -5 -37 11
-28 10 5 25 12 34 14 9 3 21 25 27 50 9 35 20 49 47 66 20 12 43 21 51 21 21
0 17 -23 -6 -38 -23 -14 -26 -40 -6 -48 8 -3 30 2 49 11 31 15 143 38 133 27
-3 -2 -1 -13 5 -23 8 -15 3 -24 -23 -49 -18 -16 -39 -30 -45 -30 -7 0 -13 -5
-13 -10 0 -6 15 -8 38 -5 20 4 59 2 87 -4 33 -6 54 -6 62 1 9 7 17 5 28 -5 8
-9 15 -17 15 -19 0 -4 -60 -1 -122 6 l-48 6 21 -43 c25 -50 89 -89 89 -53 0 9
25 20 70 31 72 18 82 26 53 45 -13 8 -14 13 -6 16 15 7 -1 44 -19 44 -7 0 -7
-4 1 -13 21 -26 -2 -27 -26 -1 -18 19 -21 29 -13 43 7 15 5 20 -9 24 -23 6
-41 -10 -41 -35 0 -10 -4 -18 -10 -18 -13 0 -13 21 -1 53 9 22 6 25 -27 36
-59 18 -68 26 -49 45 21 22 25 21 83 -18 l51 -34 67 34 c38 20 70 33 73 31 6
-7 -60 -67 -74 -67 -23 0 -25 -22 -4 -41 12 -11 30 -38 41 -59 13 -25 27 -40
39 -40 11 0 63 18 117 40 54 22 107 40 118 40 18 0 18 -1 -4 -25 -13 -14 -28
-25 -34 -25 -14 0 -79 -61 -128 -120 -21 -24 -38 -41 -38 -37 0 14 33 62 54
79 30 24 13 33 -30 16 -34 -14 -37 -18 -39 -61 -1 -28 3 -47 9 -47 6 0 3 -5
-6 -11 -10 -5 -22 -26 -28 -47 -12 -46 -12 -52 0 -52 6 0 10 7 10 16 0 10 6
14 14 11 10 -4 13 -1 10 8 -4 8 16 38 48 72 29 31 59 64 66 71 25 27 23 4 -2
-37 -30 -48 -22 -54 18 -12 17 17 35 27 45 24 19 -5 95 63 138 122 15 20 22
25 23 14 0 -9 -3 -18 -6 -22 -3 -3 -7 -29 -8 -57 -1 -37 3 -54 14 -62 13 -8
12 -9 -2 -4 -24 7 -23 -6 1 -21 14 -9 22 -9 34 0 20 16 30 74 14 81 -9 5 -9 7
1 12 6 3 10 9 7 14 -3 4 -6 34 -6 65 -1 43 -5 55 -15 51 -17 -6 -18 8 -3 36
15 28 5 32 -28 12 -16 -10 -23 -12 -15 -4 19 22 14 33 -13 28 -14 -3 -25 -2
-25 2 0 4 -11 13 -25 20 -17 9 -23 19 -20 31 4 11 0 19 -12 22 -14 4 -14 5 4
6 22 1 40 18 29 28 -3 3 -12 0 -20 -6 -11 -9 -16 -9 -21 0 -11 17 16 30 49 24
16 -3 37 -5 46 -5 10 0 32 -11 48 -25 34 -28 42 -31 42 -12 0 6 10 24 23 39
12 14 29 36 37 49 26 39 109 119 124 119 20 0 159 -51 171 -63 7 -6 -4 -8 -30
-5 -25 3 -64 -2 -105 -16 -53 -17 -66 -25 -68 -45 -3 -21 -1 -23 21 -17 14 3
32 9 41 12 30 12 7 -35 -24 -49 -8 -4 -4 -5 8 -3 13 3 37 -3 53 -13 29 -18 29
-18 9 -36 -25 -22 -25 -26 0 -53 30 -32 66 -29 85 8 9 17 20 28 26 24 7 -4 6
-10 0 -18 -8 -10 -5 -16 13 -24 26 -12 35 -5 69 50 22 35 33 103 18 112 -6 4
-9 12 -6 17 8 12 -8 12 -21 0 -15 -15 -74 -24 -74 -11 0 6 7 13 15 16 22 9 8
23 -18 18 -12 -2 -15 -1 -7 2 8 4 18 11 21 16 3 5 14 11 24 12 31 4 28 22 -7
49 -18 15 -40 33 -49 40 -9 8 -27 16 -40 19 -13 3 -31 9 -40 12 -10 4 -23 1
-32 -9 -17 -17 -27 -9 -23 19 3 22 33 46 58 46 10 0 20 10 24 25 3 14 10 25
15 25 5 0 9 9 9 20 0 11 4 20 10 20 5 0 12 11 16 24 3 14 12 27 20 30 8 3 14
13 14 21 0 9 4 14 9 10 5 -3 12 4 16 15 3 11 9 20 13 20 4 0 21 13 38 29 33
32 101 71 121 71 6 0 29 26 50 58 21 31 51 75 68 98 16 23 37 51 45 64 60 90
198 240 222 240 9 0 -14 -61 -36 -95 -76 -117 -114 -185 -104 -185 7 0 24 16
38 35 15 21 34 35 48 35 14 0 22 6 23 18 0 9 3 12 5 5 7 -16 -15 -93 -25 -93
-17 0 -23 -36 -20 -120 1 -47 3 -105 4 -130 3 -86 3 -87 20 -64 14 19 14 18
15 -3 0 -24 -42 -67 -170 -173 -55 -46 -203 -150 -212 -150 -5 0 -8 -5 -8 -11
0 -16 122 54 223 127 48 35 91 64 96 64 4 0 2 -39 -5 -87 -8 -49 -20 -140 -28
-203 -9 -63 -18 -131 -22 -150 -4 -19 -3 -32 1 -28 26 24 66 206 81 361 3 38
8 67 10 64 2 -2 7 -42 10 -88 3 -46 8 -86 10 -88 13 -14 18 38 25 296 7 271
19 385 40 398 5 4 6 0 3 -8 -2 -7 -8 -46 -13 -85 l-7 -72 68 0 68 0 0 36 c0
38 6 54 53 127 27 42 35 48 57 43 14 -4 53 -9 88 -13 56 -5 61 -7 49 -22 -21
-24 -37 -79 -37 -127 l0 -44 828 0 827 0 -2 46 c0 25 -12 67 -25 93 l-24 48
66 7 c36 4 75 8 88 9 34 3 96 -99 97 -159 l0 -44 51 0 52 0 -9 42 c-6 22 -7
60 -3 84 9 61 -1 84 -37 84 -16 0 -29 4 -29 10 0 5 -29 40 -64 78 -52 54 -62
71 -55 85 8 13 6 17 -5 17 -8 0 -16 6 -18 13 -4 9 -202 13 -936 15 l-931 3
-39 -39 c-21 -21 -57 -66 -81 -100 -24 -34 -46 -60 -49 -58 -2 3 17 34 43 70
25 36 48 78 51 93 3 15 10 30 16 34 5 4 -17 17 -50 30 l-59 23 -10 75 c-6 42
-11 71 -11 65z m-92 -152 c0 -17 -37 -70 -89 -126 -40 -42 -174 -113 -215
-113 -25 0 -23 3 26 47 233 209 278 241 278 192z m-450 -402 c0 -6 -7 -14 -17
-17 -17 -7 -45 -29 -117 -96 -35 -33 -38 -37 -16 -32 14 4 30 13 35 20 6 6 21
16 35 20 14 4 41 20 60 34 66 51 88 62 93 47 13 -34 -318 -310 -568 -473 -55
-36 -108 -71 -117 -77 -9 -6 -53 -39 -98 -74 -100 -77 -129 -90 -147 -66 -19
26 -16 42 14 102 31 61 92 113 336 287 23 16 92 66 152 111 104 76 256 174
272 174 5 1 22 12 38 25 32 27 45 31 45 15z m-390 -185 c-23 -28 -111 -98
-116 -92 -6 5 13 25 46 47 12 8 33 25 46 38 28 25 43 30 24 7z m-173 -151
c-30 -28 -37 -30 -37 -9 0 8 5 15 11 15 5 0 7 5 3 12 -4 6 -3 8 3 5 6 -4 17 0
24 9 9 12 14 13 17 4 3 -7 -7 -23 -21 -36z m-403 21 c-4 -8 -8 -15 -10 -15 -2
0 -4 7 -4 15 0 8 4 15 10 15 5 0 7 -7 4 -15z m354 -42 c-3 -17 -73 -62 -98
-62 -10 0 -9 4 5 12 12 7 19 20 17 30 -3 13 3 17 27 17 17 0 31 5 31 10 0 6 5
10 11 10 6 0 9 -7 7 -17z m-248 -72 c0 -5 -7 -14 -15 -21 -16 -14 -18 -10 -9
14 6 17 24 22 24 7z m-260 -105 c0 -3 -4 -8 -10 -11 -5 -3 -10 -1 -10 4 0 6 5
11 10 11 6 0 10 -2 10 -4z m770 -12 c0 -7 -39 -64 -57 -82 -7 -8 -25 -29 -39
-48 -15 -19 -30 -34 -35 -34 -20 0 -6 28 37 75 24 28 52 60 61 73 14 20 33 30
33 16z m-700 -19 c-14 -17 -30 -20 -30 -6 0 5 8 12 18 14 9 3 19 5 21 6 2 0
-2 -6 -9 -14z m-197 -14 c-3 -11 -14 -28 -26 -38 -11 -10 -18 -13 -14 -7 4 6
11 23 16 38 12 30 32 36 24 7z m396 4 c-20 -21 -119 -58 -119 -45 0 6 7 10 15
10 21 0 95 33 95 42 0 5 5 8 12 8 8 0 7 -5 -3 -15z m-239 -14 c0 -5 -10 -11
-22 -14 -22 -6 -22 -6 -4 8 23 17 26 18 26 6z m486 -26 c-21 -19 -41 -35 -45
-35 -7 1 70 70 78 70 3 0 -11 -16 -33 -35z m414 -4 c0 -5 -7 -11 -15 -15 -15
-5 -20 5 -8 17 9 10 23 9 23 -2z m40 -1 c0 -5 -4 -10 -10 -10 -5 0 -10 5 -10
10 0 6 5 10 10 10 6 0 10 -4 10 -10z m-2 -59 c3 -8 -1 -12 -9 -9 -7 2 -15 10
-17 17 -3 8 1 12 9 9 7 -2 15 -10 17 -17z m-858 -9 c0 -5 -9 -17 -19 -26 -14
-13 -21 -14 -27 -5 -4 7 1 18 11 26 21 15 35 17 35 5z m1010 -60 c0 -2 -7 -11
-16 -19 -13 -14 -17 -14 -25 -2 -14 22 -11 27 16 25 14 0 25 -2 25 -4z m-780
-7 c0 -13 -28 -51 -54 -74 -17 -14 -40 -37 -53 -51 -12 -13 -25 -21 -28 -18
-4 3 19 30 49 59 31 29 58 61 62 71 5 16 24 26 24 13z m43 -86 c-18 -5 -33
-14 -33 -19 0 -10 -72 -79 -97 -93 -29 -17 -24 2 8 32 90 81 104 91 128 90 24
-1 23 -2 -6 -10z"/>
<path d="M5240 4893 c0 -5 -29 -39 -65 -78 -35 -38 -65 -73 -65 -77 0 -5 -7
-8 -16 -8 -14 0 -14 3 -4 15 14 17 8 31 -9 20 -16 -10 -13 -55 3 -55 29 0 66
20 66 35 0 8 7 15 15 15 8 0 15 8 15 19 0 10 11 26 25 35 14 9 27 27 31 41 3
14 10 25 15 25 5 0 9 5 9 10 0 6 -4 10 -10 10 -5 0 -10 -3 -10 -7z"/>
<path d="M4154 4829 c-3 -5 4 -9 15 -9 11 0 23 -4 26 -10 10 -16 37 -11 33 6
-3 18 -64 28 -74 13z"/>
<path d="M4644 4786 c-5 -14 -47 -16 -61 -3 -3 4 -13 7 -21 7 -10 0 -12 -7 -8
-24 7 -27 -11 -46 -24 -26 -8 13 -30 5 -30 -11 0 -5 -18 -32 -40 -60 -38 -49
-49 -70 -32 -68 20 3 33 -2 27 -12 -4 -5 -17 -9 -28 -8 -35 4 -63 -17 -103
-76 -20 -30 -41 -55 -46 -55 -6 0 -38 -28 -72 -62 l-61 -63 30 -3 c44 -4 281
45 310 64 14 9 25 13 25 9 0 -4 15 7 33 25 17 17 46 39 62 47 17 9 32 19 35
23 3 3 33 25 68 49 34 23 62 47 62 54 0 8 -16 12 -45 12 -25 0 -45 -3 -45 -8
0 -12 -185 17 -202 32 -10 9 1 23 42 53 25 19 50 28 84 29 46 3 51 0 82 -35
28 -33 36 -37 49 -26 20 17 19 47 -3 59 -10 5 -24 28 -31 50 -9 30 -17 41 -32
41 -11 0 -22 -6 -25 -14z"/>
<path d="M3600 4765 c19 -8 46 -32 58 -51 22 -34 23 -38 8 -53 -15 -14 -18
-14 -26 -1 -8 12 -10 12 -16 -3 -3 -9 -13 -17 -21 -17 -8 0 -11 -4 -8 -10 8
-12 145 -13 145 -1 0 5 -6 14 -14 21 -8 6 -12 19 -9 27 4 10 2 14 -4 10 -7 -4
-9 0 -6 11 5 21 -65 71 -111 78 l-31 5 35 -16z"/>
<path d="M4275 4771 c-3 -5 2 -17 11 -25 14 -15 18 -15 45 1 20 12 25 19 16
25 -17 11 -65 10 -72 -1z"/>
<path d="M5014 4722 c-11 -9 -35 -28 -52 -41 -33 -25 -41 -41 -19 -41 18 1
100 75 96 88 -3 7 -11 4 -25 -6z"/>
<path d="M3053 4575 c2 -5 15 -10 29 -10 14 -1 49 -18 78 -39 l53 -38 33 38
32 39 -26 9 c-40 13 -203 14 -199 1z"/>
<path d="M4245 4559 c-4 -6 -5 -13 -2 -16 7 -7 27 6 27 18 0 12 -17 12 -25 -2z"/>
<path d="M3562 4518 c-19 -19 -15 -36 13 -54 14 -9 25 -23 25 -30 0 -8 12 -20
26 -26 25 -12 29 -10 71 36 62 69 56 80 -42 84 -54 2 -84 -1 -93 -10z"/>
<path d="M3375 4440 c-10 -11 -13 -20 -8 -20 13 0 38 29 31 35 -3 3 -13 -4
-23 -15z"/>
<path d="M5295 4441 c-6 -11 9 -23 19 -14 9 9 7 23 -3 23 -6 0 -12 -4 -16 -9z"/>
<path d="M3255 4409 c-55 -11 -95 -47 -95 -86 0 -19 5 -23 33 -23 22 0 41 8
53 21 10 12 41 37 69 55 27 19 42 34 33 34 -9 0 -22 2 -30 4 -7 2 -35 0 -63
-5z"/>
<path d="M5270 4389 c-7 -11 -10 -23 -7 -25 2 -2 9 7 15 21 14 30 7 33 -8 4z"/>
<path d="M2873 4354 c-38 -16 -44 -24 -37 -52 12 -45 58 -39 91 13 22 34 22
35 4 45 -11 5 -21 10 -23 9 -2 0 -17 -7 -35 -15z"/>
<path d="M5237 4333 c-4 -3 -7 -13 -7 -22 1 -13 3 -13 11 2 11 19 8 33 -4 20z"/>
<path d="M5217 4283 c-4 -3 -7 -11 -7 -17 0 -6 5 -5 12 2 6 6 9 14 7 17 -3 3
-9 2 -12 -2z"/>
<path d="M3793 4273 c-20 -3 -33 -10 -33 -19 0 -19 26 -17 75 6 42 20 34 22
-42 13z"/>
<path d="M5191 4224 c0 -11 3 -14 6 -6 3 7 2 16 -1 19 -3 4 -6 -2 -5 -13z"/>
<path d="M2912 4214 c-7 -8 -8 -14 -3 -14 10 0 25 19 20 25 -2 1 -10 -3 -17
-11z"/>
<path d="M4218 4149 c-27 -17 -48 -38 -48 -46 0 -14 19 0 95 68 18 17 -1 8
-47 -22z"/>
<path d="M6580 4149 c11 -8 12 -12 3 -16 -18 -7 -16 -28 3 -48 15 -14 18 -15
34 0 23 20 15 61 -13 69 -33 9 -44 7 -27 -5z"/>
<path d="M6689 4143 c-3 -6 -6 -23 -8 -32 0 -6 -14 -18 -31 -27 -22 -14 -27
-21 -18 -31 12 -15 38 -17 38 -3 0 6 -8 10 -17 10 -13 0 -14 3 -5 12 9 9 16 7
32 -7 11 -10 20 -13 20 -7 0 6 -5 14 -10 17 -6 4 -7 11 -4 17 4 7 9 6 14 -2
11 -18 45 -3 47 19 1 11 -4 24 -10 29 -11 9 -46 13 -48 5z"/>
<path d="M6535 4100 c-3 -5 -1 -10 4 -10 6 0 11 5 11 10 0 6 -2 10 -4 10 -3 0
-8 -4 -11 -10z"/>
<path d="M6507 4056 c-12 -9 -14 -16 -7 -21 6 -3 9 -14 8 -23 -2 -9 2 -17 9
-17 7 0 17 -5 24 -12 10 -10 16 -8 31 9 10 12 16 24 13 26 -3 3 -12 -3 -21
-14 -15 -19 -16 -19 -9 1 19 59 -4 84 -48 51z"/>
<path d="M6570 4060 c0 -6 9 -19 20 -30 19 -19 18 -50 -1 -50 -5 0 -9 -7 -9
-16 0 -8 -4 -13 -9 -10 -5 4 -7 -3 -4 -14 3 -11 10 -20 15 -20 5 0 7 4 4 8 -2
4 -1 14 4 22 7 12 10 11 16 -3 4 -11 0 -25 -11 -37 -11 -12 -14 -26 -10 -39 3
-12 2 -21 -3 -21 -21 0 -22 -33 -2 -52 11 -10 20 -14 20 -8 0 6 7 10 16 8 12
-2 18 5 19 20 1 13 8 28 16 33 10 6 10 9 2 9 -7 0 -13 5 -13 10 0 6 7 10 15
10 8 0 15 -4 15 -10 0 -5 7 -7 15 -4 20 8 19 -1 -2 -22 -12 -12 -14 -19 -6
-21 7 -3 10 -10 7 -18 -6 -14 52 -33 63 -21 4 3 1 6 -6 6 -7 0 -9 9 -5 24 6
26 -15 51 -63 77 -21 11 -27 11 -30 1 -3 -6 -9 -9 -14 -6 -6 3 -7 -5 -3 -23 7
-28 7 -28 -14 -9 -20 17 -20 20 -5 42 12 18 21 23 37 18 11 -4 28 -7 36 -7 8
0 25 -9 38 -20 27 -25 29 -9 2 26 -16 20 -18 31 -10 51 6 17 6 26 0 26 -6 0
-9 6 -7 13 1 6 -6 11 -15 11 -9 -1 -14 4 -12 10 2 6 -6 11 -20 11 -13 0 -22
-3 -19 -7 2 -5 0 -8 -6 -8 -6 0 -15 8 -20 19 -12 21 -41 36 -41 21z m108 -88
c3 -17 -2 -22 -17 -22 -14 0 -21 6 -21 18 0 38 33 41 38 4z"/>
<path d="M6717 4056 c-18 -19 -22 -36 -8 -36 13 0 33 28 29 41 -3 8 -9 6 -21
-5z"/>
<path d="M6774 4062 c-19 -13 -24 -43 -10 -57 17 -17 59 -8 52 11 -3 7 -1 16
4 19 19 12 10 26 -9 15 -24 -12 -42 -13 -22 -1 7 5 9 11 4 14 -5 3 -14 3 -19
-1z"/>
<path d="M6730 4008 c0 -9 7 -19 16 -22 15 -6 15 -4 3 11 -7 10 -15 20 -16 22
-2 2 -3 -3 -3 -11z"/>
<path d="M6490 3965 c0 -8 2 -15 4 -15 2 0 6 7 10 15 3 8 1 15 -4 15 -6 0 -10
-7 -10 -15z"/>
<path d="M6720 3970 c0 -5 5 -10 10 -10 6 0 10 5 10 10 0 6 -4 10 -10 10 -5 0
-10 -4 -10 -10z"/>
<path d="M6815 3960 c3 -5 8 -10 11 -10 2 0 4 5 4 10 0 6 -5 10 -11 10 -5 0
-7 -4 -4 -10z"/>
<path d="M6517 3943 c-11 -3 -16 -11 -13 -19 3 -7 1 -16 -4 -19 -6 -4 -10 -16
-10 -28 0 -16 3 -19 9 -8 5 7 14 10 20 7 18 -12 48 3 46 22 -2 23 -16 52 -24
51 -3 -1 -14 -3 -24 -6z"/>
<path d="M6737 3943 c-14 -13 -6 -25 8 -13 9 7 19 10 22 6 4 -4 1 -11 -6 -15
-15 -10 -7 -47 12 -54 23 -9 45 17 40 46 -3 15 -9 24 -13 22 -5 -3 -11 -1 -15
5 -7 11 -38 14 -48 3z"/>
<path d="M6530 3840 c0 -5 5 -10 10 -10 6 0 10 5 10 10 0 6 -4 10 -10 10 -5 0
-10 -4 -10 -10z"/>
<path d="M3222 3792 c-8 -22 6 -26 49 -13 22 7 38 15 34 19 -12 12 -77 7 -83
-6z"/>
<path d="M3424 3770 c-5 -5 -32 -13 -59 -16 -28 -4 -61 -14 -74 -23 -14 -9
-35 -14 -48 -13 -27 4 -38 -16 -29 -53 7 -26 42 -35 62 -16 5 5 45 28 89 51
73 39 78 40 55 15 -14 -15 -34 -31 -45 -36 -20 -10 -29 -15 -94 -56 -19 -12
-38 -20 -43 -17 -13 8 -88 -56 -88 -76 0 -9 7 -23 15 -30 19 -16 59 8 82 48
16 29 61 67 69 60 2 -3 -5 -16 -16 -31 -11 -14 -20 -32 -20 -41 0 -9 -4 -16
-10 -16 -14 0 -40 -55 -40 -85 0 -14 4 -25 9 -25 5 0 16 -3 24 -6 9 -3 27 12
51 45 l37 50 30 -17 c29 -16 31 -16 48 5 12 14 21 48 25 95 4 40 14 88 22 107
16 39 17 41 6 41 -13 0 -68 -83 -76 -113 -3 -14 -16 -43 -29 -64 l-22 -38 -3
29 c-2 16 -10 39 -18 51 -13 19 -11 24 14 48 16 15 31 24 35 21 4 -4 28 16 55
45 26 28 56 51 65 51 9 0 17 5 17 10 0 14 -47 12 -54 -2 -5 -10 -7 -10 -12 0
-7 15 -17 15 -30 2z"/>
<path d="M5415 3750 c-3 -5 -1 -10 4 -10 6 0 11 5 11 10 0 6 -2 10 -4 10 -3 0
-8 -4 -11 -10z"/>
<path d="M5436 3714 c-7 -19 13 -49 25 -37 10 10 0 53 -11 53 -4 0 -11 -7 -14
-16z"/>
<path d="M7004 3679 c-19 -22 -19 -22 3 -10 24 12 39 31 25 31 -5 0 -17 -10
-28 -21z"/>
<path d="M3540 3655 c-16 -20 -10 -26 18 -18 12 3 22 12 22 19 0 19 -24 18
-40 -1z"/>
<path d="M5900 3652 c-22 -10 -22 -172 0 -172 12 0 15 9 12 40 l-4 40 42 0 42
0 -4 -40 c-3 -37 -2 -40 21 -40 19 0 22 3 13 12 -14 14 -16 140 -2 153 6 7 0
10 -15 10 -24 0 -26 -10 -9 -62 2 -9 -10 -13 -43 -13 l-46 0 6 40 c3 22 4 40
4 39 -1 0 -9 -3 -17 -7z"/>
<path d="M6053 3650 c29 -49 48 -108 45 -136 -4 -31 -2 -34 22 -33 14 0 19 3
13 6 -21 8 -15 60 13 116 22 43 28 49 34 33 4 -14 9 -16 14 -8 4 7 16 12 27
12 19 0 20 -5 17 -80 -3 -80 -3 -80 22 -79 14 0 19 3 13 6 -9 3 -13 29 -13 79
0 72 1 74 25 74 14 0 25 -4 25 -10 0 -5 5 -10 10 -10 6 0 10 9 10 19 0 18 -7
20 -95 18 -57 -1 -94 -6 -93 -12 2 -5 -4 -25 -11 -44 l-14 -33 -18 33 c-9 18
-15 38 -13 44 3 6 -5 11 -16 11 -11 0 -19 -3 -17 -6z"/>
<path d="M6363 3636 c-23 -20 -28 -32 -28 -71 0 -39 5 -51 28 -71 59 -50 127
-12 127 71 0 83 -68 121 -127 71z m82 -11 c18 -17 25 -35 25 -63 0 -68 -45
-98 -86 -57 -31 31 -33 96 -4 125 26 26 36 25 65 -5z"/>
<path d="M6506 3643 c-9 -23 -7 -28 6 -15 7 7 21 12 33 12 18 0 20 -6 19 -65
-1 -36 -5 -72 -8 -80 -4 -11 1 -15 18 -15 18 0 23 5 20 23 -2 12 -5 48 -7 81
l-3 58 33 -5 c22 -4 33 -2 33 6 0 19 -137 20 -144 0z"/>
<path d="M6675 3568 l0 -88 53 0 c42 0 52 3 52 17 0 13 -3 14 -12 5 -7 -7 -25
-12 -40 -12 -26 0 -28 3 -28 36 0 35 1 36 28 31 22 -5 28 -2 28 13 0 15 -6 18
-28 13 -26 -5 -28 -3 -28 26 0 26 4 31 23 31 13 0 28 -5 35 -12 9 -9 12 -8 12
5 0 18 -2 18 -60 21 l-35 2 0 -88z"/>
<path d="M6825 3653 c-18 -3 -20 -9 -15 -74 3 -38 2 -76 -3 -84 -6 -12 -2 -15
19 -15 20 0 24 3 16 13 -13 16 -14 145 -1 153 6 3 20 -3 31 -14 22 -22 17 -62
-8 -62 -8 0 -14 -2 -14 -5 0 -12 53 -84 65 -89 18 -6 56 4 50 14 -11 17 15 60
35 60 21 0 45 -43 34 -61 -3 -5 3 -9 14 -9 18 0 18 3 -4 68 -13 37 -24 75 -24
85 0 21 -16 22 -24 1 -8 -21 -8 -26 3 -20 5 3 11 -4 15 -17 9 -33 8 -37 -13
-37 -15 0 -18 5 -14 23 4 18 3 19 -6 7 -6 -8 -11 -21 -11 -28 0 -7 -7 -29 -15
-49 -13 -30 -17 -34 -31 -22 -8 7 -22 25 -30 41 -13 25 -13 31 1 52 13 19 14
29 5 45 -6 12 -15 21 -20 21 -4 0 -14 2 -22 4 -7 2 -22 1 -33 -1z"/>
<path d="M7110 3650 c-14 -4 -19 -8 -11 -9 10 -1 12 -19 9 -81 -3 -74 -2 -80
16 -80 16 0 17 3 8 12 -7 7 -12 40 -12 78 0 38 5 71 12 78 13 13 13 13 -22 2z"/>
<path d="M7319 3631 c-52 -52 -29 -138 41 -156 25 -6 25 -5 -2 10 -15 8 -32
24 -38 35 -40 75 47 175 94 108 13 -18 16 -19 16 -6 0 20 -29 38 -60 38 -12 0
-35 -13 -51 -29z"/>
<path d="M4376 3634 c-5 -14 37 -24 56 -13 7 4 9 12 4 16 -12 12 -55 10 -60
-3z"/>
<path d="M5765 3565 c0 -50 4 -85 10 -85 6 0 9 33 7 85 -2 47 -7 85 -10 85 -4
0 -7 -38 -7 -85z"/>
<path d="M5818 3638 c15 -15 16 -68 0 -68 -6 0 -8 -3 -5 -6 11 -11 37 17 37
40 0 23 -17 46 -34 46 -6 0 -5 -5 2 -12z"/>
<path d="M7164 3629 c16 -23 11 -47 -13 -66 -20 -15 -7 -17 20 -3 22 12 26 59
7 78 -20 20 -30 13 -14 -9z"/>
<path d="M7225 3565 c0 -69 3 -85 15 -85 12 0 15 16 15 85 0 69 -3 85 -15 85
-12 0 -15 -16 -15 -85z"/>
<path d="M7500 3637 c0 -7 4 -17 9 -22 6 -6 12 -21 14 -35 2 -14 9 -38 15 -53
7 -16 12 -33 12 -38 0 -5 4 -9 8 -9 5 0 -2 32 -15 71 -13 40 -23 78 -23 85 0
8 -4 14 -10 14 -5 0 -10 -6 -10 -13z"/>
<path d="M5414 3586 c-26 -20 -44 -42 -48 -60 -8 -36 1 -47 18 -23 14 19 31
24 20 6 -4 -7 -1 -10 7 -7 8 3 13 11 12 17 -2 6 6 11 16 11 24 0 31 18 23 56
l-7 30 -41 -30z"/>
<path d="M3820 3600 c0 -5 5 -10 10 -10 6 0 10 5 10 10 0 6 -4 10 -10 10 -5 0
-10 -4 -10 -10z"/>
<path d="M7470 3549 c0 -5 5 -7 10 -4 6 3 10 8 10 11 0 2 -4 4 -10 4 -5 0 -10
-5 -10 -11z"/>
<path d="M7453 3505 c-8 -19 -8 -25 1 -25 6 0 13 11 14 25 2 31 0 31 -15 0z"/>
<path d="M7410 3495 c-8 -9 -8 -15 -2 -15 12 0 26 19 19 26 -2 2 -10 -2 -17
-11z"/>
<path d="M5303 3477 c-25 -31 -26 -39 -5 -28 12 6 23 15 27 20 9 15 -12 22
-22 8z"/>
<path d="M3585 3470 c-3 -5 -3 -14 0 -20 3 -5 0 -10 -8 -10 -18 0 -30 -27 -16
-36 6 -3 41 -22 79 -40 45 -23 67 -40 64 -48 -4 -10 4 -12 30 -9 21 2 36 -1
36 -7 0 -5 -11 -10 -25 -10 -13 0 -32 -8 -42 -18 -20 -21 -118 -69 -148 -74
-11 -2 -21 -9 -21 -16 -3 -25 -5 -27 -15 -9 -9 16 -14 13 -50 -22 -41 -42 -55
-68 -18 -35 19 17 21 18 30 1 14 -24 26 -21 36 9 8 24 10 25 25 11 14 -15 20
-15 67 3 66 24 209 164 183 179 -9 5 -14 13 -9 17 10 10 -54 48 -75 45 -13 -1
-16 2 -12 13 6 15 -6 21 -30 17 -17 -3 -44 10 -50 25 -5 12 -1 14 17 8 22 -7
22 -6 3 15 -21 23 -41 27 -51 11z"/>
<path d="M5365 3445 c-22 -19 -46 -35 -52 -35 -19 0 -16 -27 5 -42 10 -7 22
-25 26 -40 9 -37 28 -35 76 8 37 34 40 40 40 90 0 52 -1 54 -27 54 -17 -1 -44
-14 -68 -35z m25 -80 c-7 -8 -18 -15 -24 -15 -6 0 -2 7 8 15 25 19 32 19 16 0z"/>
<path d="M3360 3386 c-12 -12 -13 -26 -1 -44 6 -10 15 -6 38 16 l30 30 -28 4
c-16 3 -33 0 -39 -6z"/>
<path d="M3465 3380 c17 -4 39 -8 50 -9 16 -1 17 1 5 9 -8 5 -31 9 -50 9 l-35
-1 30 -8z"/>
<path d="M3976 3363 c-17 -3 -30 -12 -33 -23 -3 -10 -19 -26 -37 -35 -35 -19
-71 -63 -43 -52 20 8 29 -3 16 -19 -7 -8 -7 -14 1 -19 16 -10 30 4 30 31 0 14
4 23 9 20 16 -10 63 13 68 34 3 11 9 20 14 20 5 0 5 8 2 18 -6 15 -5 16 11 2
17 -13 18 -13 15 4 -4 22 -12 25 -53 19z"/>
<path d="M6320 3363 l25 -4 -3 -100 c-3 -86 -1 -99 11 -88 8 8 13 30 12 59
l-3 45 7 -40 7 -40 6 40 5 40 -1 -43 c-1 -23 3 -41 8 -39 5 2 18 -5 28 -15 24
-24 22 -129 -2 -136 -12 -4 -13 -2 -2 9 20 21 15 93 -8 114 -10 9 -26 15 -34
12 -17 -7 -37 -71 -29 -95 11 -37 26 -60 37 -58 6 2 8 1 3 -1 -4 -3 -5 -9 -1
-14 3 -5 1 -9 -4 -9 -5 0 -14 12 -21 26 -11 25 -13 26 -31 9 -20 -19 -14 -52
15 -81 20 -21 19 -31 -5 -37 -11 -3 -20 -12 -20 -21 0 -9 -8 -16 -21 -16 -18
0 -18 -2 8 -24 28 -24 28 -26 33 -158 l5 -134 -25 3 c-14 2 -19 0 -12 -3 6 -3
12 -23 12 -45 0 -27 4 -39 14 -39 17 0 26 -22 26 -64 0 -24 4 -33 18 -33 9 0
20 5 24 11 5 7 8 4 8 -6 0 -23 28 -23 52 -1 10 9 18 13 18 10 0 -3 -12 -17
-26 -30 -16 -15 -27 -39 -31 -65 -6 -41 -5 -42 25 -42 33 0 36 6 48 98 5 37 3
52 -5 52 -7 0 -9 5 -6 10 4 6 12 8 18 4 7 -3 4 1 -5 9 -10 8 -18 21 -18 30 0
8 -6 18 -12 20 -10 4 -10 8 0 15 8 5 12 22 10 38 -2 24 -8 29 -29 29 -15 0
-26 5 -27 15 0 8 -12 66 -26 129 -15 63 -26 116 -26 118 0 1 -5 3 -11 3 -6 0
-8 -8 -5 -18 11 -32 14 -106 8 -137 -5 -21 -9 -4 -13 60 -4 50 -10 100 -14
113 -4 13 -3 22 3 22 6 0 13 -8 15 -17 4 -15 5 -16 6 -2 1 10 12 18 30 21 22
3 28 1 23 -11 -4 -11 -1 -13 13 -8 14 6 16 5 6 -6 -8 -11 -8 -33 3 -93 15 -85
18 -83 36 15 9 49 9 66 0 71 -14 9 -4 17 38 31 22 7 21 8 -10 3 l-38 -5 0 65
c0 39 5 70 13 77 8 7 11 31 8 67 -2 37 -6 50 -12 41 -6 -9 -9 -1 -8 26 0 31 2
36 9 20 7 -16 9 -13 9 17 1 20 6 40 11 43 6 4 10 -30 10 -95 l0 -101 32 3 c39
4 51 28 14 28 -22 0 -26 4 -26 29 0 23 5 30 22 33 32 5 35 28 4 28 -21 0 -26
5 -26 25 0 20 5 25 25 25 16 0 25 6 25 15 0 11 -11 15 -36 15 -30 0 -35 3 -30
17 6 16 6 16 -12 0 -32 -29 -52 -22 -52 19 0 21 4 33 10 29 6 -4 11 9 12 32
l1 38 7 -45 7 -45 1 48 2 47 -92 -1 c-51 -1 -82 -4 -68 -6z m80 -259 c0 -32
-4 -44 -12 -42 -14 5 -23 51 -14 74 11 30 26 12 26 -32z m52 -323 c-4 -11 -7
-10 -13 5 -12 29 -10 36 5 22 7 -7 11 -19 8 -27z m-62 -106 c0 -8 -2 -15 -4
-15 -2 0 -6 7 -10 15 -3 8 -1 15 4 15 6 0 10 -7 10 -15z m74 -363 c-4 -18 -10
-32 -14 -32 -7 0 -5 24 6 59 8 26 14 4 8 -27z"/>
<path d="M3425 3340 c3 -5 10 -10 16 -10 5 0 9 5 9 10 0 6 -7 10 -16 10 -8 0
-12 -4 -9 -10z"/>
<path d="M3543 3342 c-13 -2 -23 -8 -23 -13 0 -5 -13 -9 -28 -9 -15 0 -33 -5
-38 -10 -13 -13 -44 -3 -44 14 0 6 -4 5 -9 -3 -27 -43 34 -54 121 -22 29 11
64 21 78 23 25 3 25 4 -5 14 -16 5 -40 8 -52 6z"/>
<path d="M3637 3326 c-4 -10 -1 -13 9 -9 15 6 19 23 5 23 -5 0 -11 -7 -14 -14z"/>
<path d="M3832 3297 c-15 -16 -22 -36 -22 -65 0 -45 6 -50 34 -29 15 11 16 16
5 41 -12 24 -11 30 4 41 18 13 23 35 9 35 -5 0 -18 -10 -30 -23z"/>
<path d="M5391 3211 c-30 -73 -32 -85 -21 -107 15 -28 51 -32 74 -8 12 12 16
36 15 102 -1 57 -4 78 -9 62 -7 -25 -11 -21 -22 19 -2 8 -19 -22 -37 -68z"/>
<path d="M3999 3262 c-14 -9 -32 -23 -40 -30 -7 -7 -26 -21 -41 -33 -16 -11
-28 -27 -28 -35 0 -21 31 -17 57 8 26 24 31 13 8 -18 -17 -23 -20 -70 -4 -80
6 -3 15 -1 19 6 6 10 9 9 12 -1 6 -17 55 66 61 101 2 14 7 33 11 42 11 24 3
52 -14 55 -8 1 -26 -6 -41 -15z"/>
<path d="M3513 3263 c-14 -5 -18 -35 -7 -46 12 -11 44 13 44 33 0 19 -12 24
-37 13z"/>
<path d="M6132 3258 c-7 -7 -12 -18 -12 -25 0 -7 -4 -13 -9 -13 -11 0 -31 -55
-31 -84 0 -40 20 -94 38 -101 11 -4 24 2 41 21 20 24 23 36 19 85 -3 37 -11
65 -22 78 -11 12 -14 21 -7 26 13 7 15 25 3 25 -4 0 -13 -5 -20 -12z m16 -127
c-2 -51 -6 -66 -18 -66 -11 0 -16 14 -18 49 -4 66 4 97 24 89 12 -4 14 -20 12
-72z"/>
<path d="M3406 3220 c-34 -33 -38 -41 -27 -54 19 -23 42 -20 81 13 34 28 34
28 17 55 -10 14 -21 26 -25 25 -4 0 -25 -18 -46 -39z"/>
<path d="M6200 3135 c0 -78 3 -95 15 -95 12 0 15 17 15 95 0 78 -3 95 -15 95
-12 0 -15 -17 -15 -95z"/>
<path d="M7180 3225 c0 -6 -2 -49 -3 -97 -2 -49 0 -88 4 -88 10 0 16 173 7
185 -5 5 -8 5 -8 0z"/>
<path d="M7030 3204 c0 -8 5 -12 10 -9 6 3 10 10 10 16 0 5 -4 9 -10 9 -5 0
-10 -7 -10 -16z"/>
<path d="M6267 3162 c-36 -40 -9 -137 36 -130 30 4 34 28 4 28 -16 0 -26 7
-30 20 -4 17 0 20 24 20 23 0 29 5 29 21 0 28 -18 59 -34 59 -7 0 -20 -8 -29
-18z m35 -27 c0 -5 -5 -11 -11 -13 -6 -2 -11 4 -11 13 0 9 5 15 11 13 6 -2 11
-8 11 -13z"/>
<path d="M6596 3165 c-21 -22 -20 -28 9 -63 25 -30 18 -57 -11 -45 -8 3 -14 1
-14 -5 0 -19 33 -23 51 -6 24 22 24 36 -1 59 -24 22 -26 45 -4 45 9 0 14 5 12
12 -7 19 -24 20 -42 3z"/>
<path d="M6676 3165 c-21 -22 -20 -34 5 -61 24 -25 20 -57 -6 -48 -8 3 -15 2
-15 -4 0 -15 22 -21 43 -10 23 12 22 51 -2 72 -22 20 -17 48 6 39 10 -4 14 -2
11 7 -7 21 -24 23 -42 5z"/>
<path d="M6756 3158 c-22 -31 -20 -84 4 -108 19 -19 50 -18 50 2 0 6 -7 8 -15
4 -8 -3 -19 3 -25 14 -15 27 -13 30 20 30 22 0 30 5 30 18 0 20 -27 62 -40 62
-5 0 -16 -10 -24 -22z m38 -13 c3 -9 -1 -18 -10 -22 -19 -7 -26 0 -18 21 8 20
20 21 28 1z"/>
<path d="M6863 3173 c-21 -4 -23 -10 -23 -69 0 -36 4 -64 10 -64 6 0 10 22 10
49 0 31 5 53 15 61 13 11 15 5 15 -49 0 -48 3 -61 15 -61 11 0 15 12 15 44 0
47 -14 97 -27 95 -5 -1 -18 -4 -30 -6z"/>
<path d="M6966 3164 c-40 -40 -28 -117 18 -122 19 -2 26 0 21 7 -3 6 -11 9
-16 6 -14 -9 -32 40 -25 68 3 14 15 27 27 30 12 3 18 10 14 16 -9 15 -21 14
-39 -5z"/>
<path d="M7093 3173 c-19 -7 -16 -24 4 -21 10 2 19 -4 21 -14 2 -11 -3 -18
-12 -18 -20 0 -39 -36 -31 -60 4 -14 15 -20 36 -20 29 0 29 1 29 58 0 32 -5
63 -12 70 -13 13 -16 13 -35 5z m30 -93 c-7 -27 -22 -35 -29 -16 -7 18 13 49
26 41 5 -3 6 -14 3 -25z"/>
<path d="M7030 3105 c0 -37 4 -65 10 -65 6 0 10 28 10 65 0 37 -4 65 -10 65
-6 0 -10 -28 -10 -65z"/>
<path d="M3697 3153 c-18 -5 -18 -6 -1 -24 16 -18 18 -18 36 -3 32 30 18 41
-35 27z"/>
<path d="M4050 3114 c-31 -48 -21 -51 13 -3 16 21 24 39 18 39 -5 0 -19 -16
-31 -36z"/>
<path d="M3637 3129 c-17 -10 -24 -39 -9 -39 14 0 44 38 35 43 -5 3 -16 1 -26
-4z"/>
<path d="M3140 3105 c-21 -25 -4 -28 37 -6 l38 20 -31 1 c-17 0 -37 -7 -44
-15z"/>
<path d="M3535 3110 c-10 -16 5 -29 35 -32 17 -2 25 2 25 12 0 8 -6 14 -14 12
-7 -1 -19 2 -26 8 -10 8 -15 8 -20 0z"/>
<path d="M3276 3103 c-4 -5 -33 -17 -64 -28 -48 -18 -57 -25 -60 -48 -5 -38
15 -42 89 -19 49 15 68 26 81 48 9 16 17 35 17 42 1 13 -51 17 -63 5z m-78
-65 c-3 -7 -13 -15 -24 -17 -16 -3 -17 -1 -5 13 16 19 34 21 29 4z"/>
<path d="M3668 3086 c-19 -7 -28 -17 -28 -32 0 -46 54 -42 63 4 7 35 -1 41
-35 28z"/>
<path d="M3411 3062 c-21 -30 -51 -38 -51 -14 0 7 -5 12 -12 10 -15 -5 -29
-56 -17 -64 15 -9 10 -40 -12 -68 -24 -30 -36 -29 -20 3 7 12 7 22 2 25 -14 9
-41 -50 -29 -62 7 -7 6 -16 -1 -29 -9 -16 -10 -15 -11 8 0 18 -8 29 -25 37
-22 10 -27 8 -51 -23 -14 -19 -23 -39 -19 -45 8 -13 35 -13 35 0 0 6 -6 10
-12 10 -9 0 -9 3 -2 8 6 4 14 15 17 26 6 15 10 16 22 6 20 -17 19 -40 -2 -41
-11 0 -13 -3 -5 -6 26 -10 12 -33 -20 -33 -28 0 -36 -6 -50 -39 -20 -41 -23
-71 -9 -71 5 0 16 -3 25 -6 10 -4 29 15 63 61 43 60 48 64 54 43 3 -12 1 -26
-5 -30 -6 -4 5 -8 25 -8 27 0 44 7 65 29 41 41 49 54 48 76 -1 15 0 16 3 3 3
-11 14 -18 29 -18 35 0 41 19 32 119 -3 31 -11 49 -27 62 -15 13 -22 26 -18
39 7 27 2 25 -22 -8z"/>
<path d="M6295 3080 c-3 -5 1 -10 10 -10 9 0 13 5 10 10 -3 6 -8 10 -10 10 -2
0 -7 -4 -10 -10z"/>
<path d="M3970 3040 c-8 -5 -11 -12 -7 -16 4 -4 13 -2 19 4 15 15 7 24 -12 12z"/>
<path d="M6505 3010 c-3 -5 -1 -10 4 -10 6 0 11 5 11 10 0 6 -2 10 -4 10 -3 0
-8 -4 -11 -10z"/>
<path d="M3266 2981 c-4 -7 -5 -15 -2 -18 9 -9 19 4 14 18 -4 11 -6 11 -12 0z"/>
<path d="M3162 2946 c-17 -12 -29 -26 -25 -30 4 -3 -4 -5 -18 -4 -18 2 -23 -1
-21 -14 3 -20 -14 -25 -20 -6 -6 17 -28 0 -28 -22 0 -32 29 -40 67 -18 18 11
33 23 33 28 0 4 11 24 25 45 15 20 24 39 22 41 -2 2 -18 -7 -35 -20z"/>
<path d="M3240 2940 c13 -23 20 -26 20 -6 0 8 -7 16 -15 20 -13 4 -14 2 -5
-14z"/>
<path d="M6511 2745 c-8 -37 -11 -69 -7 -72 3 -4 6 1 6 10 0 10 3 17 8 17 4 0
8 25 9 55 1 30 1 55 0 55 -2 0 -9 -29 -16 -65z"/>
<path d="M6280 2786 c0 -8 -6 -17 -12 -19 -8 -3 -6 -6 5 -6 11 -1 17 6 17 19
0 11 -2 20 -5 20 -3 0 -5 -6 -5 -14z"/>
<path d="M6283 2680 c0 -25 2 -35 4 -22 2 12 2 32 0 45 -2 12 -4 2 -4 -23z"/>
<path d="M6245 2700 c-3 -6 1 -7 9 -4 18 7 21 14 7 14 -6 0 -13 -4 -16 -10z"/>
<path d="M6534 2676 c-3 -8 -4 -23 -2 -33 3 -11 6 -6 9 15 6 34 2 42 -7 18z"/>
<path d="M6486 2635 c-4 -16 -9 -35 -11 -41 -4 -14 12 -40 20 -32 3 3 5 28 3
54 -3 45 -4 47 -12 19z"/>
<path d="M4192 2631 c-29 -11 -74 -35 -100 -54 -49 -35 -117 -115 -107 -126 4
-3 11 3 17 13 58 104 226 186 352 173 107 -11 219 -73 276 -152 28 -38 47 -47
29 -14 -22 42 -98 108 -161 140 -55 28 -75 33 -158 36 -77 3 -105 0 -148 -16z"/>
<path d="M4294 2533 c3 -23 2 -44 -3 -47 -11 -7 -21 17 -21 50 0 13 -5 24 -10
24 -10 0 -8 -20 7 -73 3 -10 12 -17 21 -15 21 4 28 60 12 85 -9 14 -10 10 -6
-24z"/>
<path d="M4345 2524 c-3 -25 -4 -48 -1 -52 3 -3 6 4 6 16 0 29 20 28 21 0 1
-14 5 -7 10 17 11 44 6 65 -15 65 -9 0 -16 -16 -21 -46z m35 17 c0 -6 -4 -13
-10 -16 -5 -3 -10 1 -10 9 0 9 5 16 10 16 6 0 10 -4 10 -9z"/>
<path d="M4176 2531 c-6 -10 23 -81 33 -81 3 0 6 19 6 42 0 32 -4 43 -17 46
-9 2 -19 -1 -22 -7z m34 -22 c0 -5 -4 -9 -10 -9 -5 0 -10 7 -10 16 0 8 5 12
10 9 6 -3 10 -10 10 -16z"/>
<path d="M4424 2515 c-19 -29 -15 -59 8 -63 19 -4 53 52 44 74 -8 22 -34 17
-52 -11z m26 -34 c-12 -23 -30 -28 -30 -8 0 7 8 24 17 37 15 21 18 22 21 8 2
-9 -2 -26 -8 -37z"/>
<path d="M4153 2396 c-26 -23 -28 -30 -31 -114 -3 -68 0 -97 12 -121 20 -39
59 -50 86 -26 54 49 52 231 -3 270 -28 20 -31 19 -64 -9z m65 -52 c16 -45 11
-156 -8 -179 -36 -44 -64 13 -58 118 5 109 39 140 66 61z"/>
<path d="M4326 2398 c-35 -31 -51 -113 -35 -186 27 -134 125 -118 136 21 7 85
-3 134 -32 163 -30 30 -37 30 -69 2z m56 -30 c17 -32 17 -180 -1 -201 -37 -46
-65 9 -59 116 4 96 32 135 60 85z"/>
<path d="M4482 2397 c-44 -47 -23 -157 30 -157 48 0 69 119 28 160 -25 25 -32
25 -58 -3z m52 -23 c18 -46 -6 -126 -32 -110 -17 11 -26 75 -13 102 12 27 36
32 45 8z"/>
<path d="M4576 2270 c-42 -82 -72 -150 -67 -150 8 0 161 279 161 294 0 3 -4 6
-9 6 -5 0 -43 -67 -85 -150z"/>
<path d="M3988 2392 c-16 -9 -28 -20 -28 -24 0 -12 18 -19 25 -8 3 5 13 10 21
10 11 0 14 -23 14 -126 0 -96 3 -125 13 -122 9 3 13 44 15 146 2 131 1 142
-15 142 -10 0 -30 -8 -45 -18z"/>
<path d="M6081 2345 c-6 -36 -9 -70 -6 -75 8 -13 45 -13 45 0 0 6 -7 10 -16
10 -12 0 -15 6 -11 23 4 12 9 41 13 65 11 69 -11 48 -25 -23z"/>
<path d="M6596 2398 c-2 -7 -9 -40 -15 -72 -10 -57 -9 -77 5 -63 11 11 32 147
22 147 -5 0 -10 -6 -12 -12z"/>
<path d="M6818 2388 c-7 -13 -13 -35 -14 -50 -1 -15 -4 -39 -8 -53 -4 -14 -2
-25 3 -25 10 0 21 34 21 68 0 12 5 22 11 22 6 0 8 7 5 16 -4 9 -1 23 5 30 8
10 8 14 1 14 -6 0 -17 -10 -24 -22z"/>
<path d="M6866 2388 c-16 -27 -29 -128 -16 -128 5 0 12 20 16 45 3 25 11 45
16 45 6 0 7 7 4 16 -4 9 -1 23 5 30 8 10 8 14 0 14 -6 0 -17 -10 -25 -22z"/>
<path d="M7196 2399 c-11 -33 -22 -129 -16 -129 9 0 33 130 26 138 -3 2 -8 -1
-10 -9z"/>
<path d="M6304 2388 c-4 -7 -3 -8 4 -4 6 4 20 1 30 -5 16 -10 19 -20 15 -53
-3 -23 -12 -51 -20 -64 -8 -13 -13 -35 -12 -50 1 -15 1 -41 1 -59 -2 -28 -6
-32 -34 -36 -18 -2 37 -4 122 -4 98 0 137 3 105 7 -27 4 -42 8 -32 8 14 2 17
12 17 67 0 36 -4 65 -10 65 -5 0 -6 -8 -3 -17 6 -16 5 -16 -10 -4 -9 7 -23 11
-31 8 -24 -9 -38 19 -34 70 3 46 2 48 -25 51 -16 2 -31 10 -34 18 -6 17 -39
19 -49 2z m77 -115 c-9 -15 -10 -13 -11 14 0 17 3 40 8 50 5 14 8 11 10 -14 2
-18 -1 -41 -7 -50z"/>
<path d="M6518 2388 c9 -11 9 -17 2 -20 -6 -2 -12 -26 -13 -53 -2 -47 -1 -49
26 -51 22 -2 27 1 27 20 0 13 3 38 6 55 4 20 3 31 -5 31 -6 0 -14 -18 -17 -40
-4 -22 -11 -43 -15 -46 -8 -5 -4 54 6 83 2 6 -4 17 -13 25 -15 11 -16 11 -4
-4z"/>
<path d="M6905 2390 c-3 -5 -1 -10 4 -10 6 0 11 5 11 10 0 6 -2 10 -4 10 -3 0
-8 -4 -11 -10z"/>
<path d="M7000 2390 c0 -5 5 -10 10 -10 6 0 10 5 10 10 0 6 -4 10 -10 10 -5 0
-10 -4 -10 -10z"/>
<path d="M7230 2390 c0 -5 5 -10 10 -10 6 0 10 5 10 10 0 6 -4 10 -10 10 -5 0
-10 -4 -10 -10z"/>
<path d="M6271 2371 c-8 -5 -20 -22 -27 -38 l-12 -28 -1 33 c-1 17 -5 32 -11
32 -11 0 -13 -52 -4 -87 9 -34 19 -28 39 25 10 26 22 53 28 60 11 14 7 15 -12
3z"/>
<path d="M6156 2354 c-18 -17 -30 -57 -24 -76 7 -19 58 -18 58 2 0 8 3 32 6
53 5 29 3 37 -9 37 -9 0 -23 -7 -31 -16z m18 -42 c-7 -33 -24 -44 -24 -16 0
18 20 58 26 51 2 -2 1 -18 -2 -35z"/>
<path d="M6285 2340 c-20 -39 -19 -67 3 -79 28 -15 39 -1 47 57 6 48 5 52 -14
52 -13 0 -26 -11 -36 -30z m29 -17 c-8 -35 -24 -54 -24 -29 0 18 17 56 26 56
2 0 1 -12 -2 -27z"/>
<path d="M6630 2343 c-30 -38 -24 -78 13 -78 18 -1 27 4 27 15 0 8 3 32 6 53
8 46 -14 51 -46 10z m25 -32 c-7 -32 -25 -43 -25 -15 0 19 20 57 27 51 3 -3 2
-19 -2 -36z"/>
<path d="M6736 2348 c-18 -25 -20 -56 -6 -78 23 -36 70 42 49 82 -13 24 -24
23 -43 -4z m34 -10 c0 -25 -12 -58 -21 -58 -10 0 -12 31 -3 54 7 19 24 21 24
4z"/>
<path d="M6947 2352 c-22 -24 -22 -81 -2 -89 23 -8 31 5 11 20 -14 10 -15 18
-7 40 6 15 15 27 21 27 5 0 10 5 10 10 0 16 -15 12 -33 -8z"/>
<path d="M7000 2365 c0 -5 -5 -29 -9 -53 -5 -23 -5 -45 0 -47 9 -6 23 78 16
97 -3 7 -6 9 -7 3z"/>
<path d="M7048 2363 c-10 -2 -18 -13 -18 -22 0 -10 -3 -33 -7 -51 -4 -22 -3
-31 5 -27 5 4 13 25 17 47 10 58 29 51 20 -7 -4 -33 -3 -45 4 -38 13 13 19 97
6 100 -5 1 -18 1 -27 -2z"/>
<path d="M7121 2351 c-21 -21 -29 -75 -12 -85 27 -17 53 29 53 89 -1 18 -21
16 -41 -4z m23 -28 c-9 -37 -14 -44 -24 -38 -11 7 8 65 21 65 5 0 6 -12 3 -27z"/>
<path d="M7263 2354 c-3 -8 -1 -26 6 -40 14 -32 14 -34 -4 -34 -8 0 -15 -4
-15 -10 0 -12 10 -13 29 -1 13 9 12 24 -4 64 -5 12 -2 17 10 17 9 0 13 5 10
10 -9 15 -25 12 -32 -6z"/>
<path d="M6896 2338 c-3 -13 -6 -36 -6 -52 0 -43 16 -20 23 32 5 44 -6 58 -17
20z"/>
<path d="M7220 2341 c0 -10 -3 -34 -6 -52 -5 -23 -3 -31 4 -24 15 15 26 95 13
95 -6 0 -11 -8 -11 -19z"/>
<path d="M4636 2279 c-21 -17 -26 -29 -26 -68 0 -76 45 -116 82 -73 33 37 26
132 -11 152 -14 7 -25 5 -45 -11z m48 -25 c18 -46 -6 -126 -32 -110 -17 11
-26 75 -13 102 12 27 36 32 45 8z"/>
<path d="M4108 2075 c-16 -13 -28 -27 -28 -31 0 -4 10 1 22 12 23 20 23 22 1
-33 -5 -14 1 -12 27 8 19 14 36 32 38 40 3 8 -8 3 -23 -11 l-28 -25 17 33 c20
38 11 40 -26 7z"/>
<path d="M3982 2049 c12 -22 44 -61 71 -85 148 -139 380 -144 532 -11 47 41
99 111 93 127 -2 6 -19 -13 -38 -42 -147 -222 -487 -220 -634 4 -38 58 -56 63
-24 7z"/>
<path d="M4480 2082 c0 -6 16 -23 35 -37 33 -26 55 -27 55 -2 0 8 -3 8 -12 -1
-9 -9 -19 -5 -45 20 -18 18 -33 27 -33 20z"/>
<path d="M4446 2033 c10 -41 23 -73 29 -73 3 0 5 8 3 18 -2 11 3 16 16 15 14
-1 11 6 -15 33 -18 19 -34 34 -36 34 -2 0 0 -12 3 -27z m34 -24 c0 -6 -4 -7
-10 -4 -5 3 -10 11 -10 16 0 6 5 7 10 4 6 -3 10 -11 10 -16z"/>
<path d="M4183 2027 c-31 -34 -35 -45 -15 -43 9 0 16 -5 14 -12 -1 -8 2 -11 7
-7 11 6 26 73 19 80 -3 3 -14 -5 -25 -18z m17 -17 c0 -5 -5 -10 -11 -10 -5 0
-7 5 -4 10 3 6 8 10 11 10 2 0 4 -4 4 -10z"/>
<path d="M4243 2018 c0 -7 -3 -29 -6 -48 l-6 -35 16 38 c8 20 20 37 25 37 5 0
6 5 3 10 -9 14 -32 12 -32 -2z"/>
<path d="M4375 2020 c-7 -11 12 -90 22 -90 3 0 3 9 0 20 -6 25 8 26 22 3 10
-17 10 -17 11 -1 0 9 -5 20 -10 23 -6 4 -8 11 -4 16 6 11 -13 39 -27 39 -4 0
-11 -4 -14 -10z m25 -16 c0 -8 -4 -12 -10 -9 -5 3 -10 10 -10 16 0 5 5 9 10 9
6 0 10 -7 10 -16z"/>
<path d="M4298 2014 c-14 -13 -9 -71 7 -84 23 -19 35 -2 33 48 -1 39 -2 41 -5
12 -6 -60 -17 -68 -22 -17 -4 27 -9 45 -13 41z"/>
<path d="M7705 2010 c33 -3 71 -12 83 -19 13 -7 26 -10 29 -7 13 12 -69 36
-119 35 l-53 -2 60 -7z"/>
<path d="M7513 1935 c-29 -30 -53 -60 -53 -66 0 -7 13 6 29 28 16 22 44 52 62
66 19 15 30 27 25 27 -6 0 -34 -25 -63 -55z"/>
<path d="M7710 1918 c0 -4 4 -8 9 -8 6 0 12 4 15 8 3 5 -1 9 -9 9 -8 0 -15 -4
-15 -9z"/>
<path d="M7767 1923 c-14 -13 -6 -25 8 -13 21 18 21 -13 -1 -34 -8 -9 -11 -16
-5 -16 12 0 31 33 31 54 0 16 -21 22 -33 9z"/>
<path d="M7468 1816 c-10 -7 -18 -19 -18 -27 0 -10 3 -10 12 -1 23 23 27 11
31 -90 l3 -103 2 118 c1 64 -1 117 -5 117 -5 0 -16 -7 -25 -14z"/>
<path d="M7576 1808 c-11 -15 -16 -45 -16 -93 0 -107 45 -154 76 -80 27 66 8
195 -30 195 -8 0 -22 -10 -30 -22z m48 -14 c12 -30 6 -150 -7 -169 -13 -17
-15 -17 -30 6 -19 27 -23 128 -7 160 13 23 36 25 44 3z"/>
<path d="M7690 1809 c-19 -34 -23 -120 -8 -164 11 -32 18 -40 38 -40 20 0 27
8 38 40 16 46 10 148 -8 170 -18 21 -47 18 -60 -6z m51 -26 c14 -35 7 -139
-10 -156 -21 -21 -41 20 -41 86 0 88 29 127 51 70z"/>
<path d="M7802 1818 c-13 -13 -16 -75 -6 -102 3 -9 14 -16 23 -16 11 0 12 3 4
8 -21 13 -26 59 -10 92 16 31 10 39 -11 18z"/>
<path d="M5454 1535 c0 -115 2 -161 3 -102 2 59 2 154 0 210 -1 56 -3 8 -3
-108z"/>
<path d="M6840 1605 c0 -63 4 -105 10 -105 6 0 10 42 10 105 0 63 -4 105 -10
105 -6 0 -10 -42 -10 -105z"/>
<path d="M6464 1679 c-19 -21 -19 -22 4 -15 22 7 22 6 22 -78 0 -51 4 -86 10
-86 6 0 10 40 10 100 0 108 -8 121 -46 79z"/>
<path d="M6563 1663 c-17 -41 -13 -124 8 -149 31 -38 69 7 69 83 0 100 -46
139 -77 66z m51 1 c9 -24 7 -117 -4 -134 -17 -27 -31 4 -32 67 -1 60 5 83 22
83 4 0 11 -7 14 -16z"/>
<path d="M6670 1573 c0 -89 18 -97 22 -10 2 47 7 62 18 62 11 0 16 -15 18 -62
4 -81 20 -82 24 -1 2 38 8 63 16 66 9 3 12 -14 12 -63 0 -47 4 -65 12 -63 14
5 12 128 -3 143 -6 6 -16 5 -29 -3 -11 -7 -21 -8 -25 -2 -3 5 -19 8 -35 7
l-30 -2 0 -72z"/>
<path d="M4600 1480 c0 -118 2 -140 15 -140 13 0 15 22 15 140 0 118 -2 140
-15 140 -13 0 -15 -22 -15 -140z"/>
<path d="M4088 1584 c-16 -8 -28 -19 -28 -24 0 -14 18 -21 25 -10 18 29 25 0
25 -100 0 -91 3 -110 15 -110 13 0 15 21 15 130 0 140 -1 142 -52 114z"/>
<path d="M4220 1573 c-19 -25 -21 -38 -18 -109 2 -64 7 -87 22 -103 25 -28 53
-23 80 12 28 38 30 159 3 200 -23 36 -59 35 -87 0z m64 -19 c3 -9 6 -48 6 -89
0 -53 -4 -76 -15 -85 -26 -21 -39 3 -43 79 -4 70 8 111 32 111 8 0 17 -7 20
-16z"/>
<path d="M7450 1564 c0 -20 60 -102 88 -119 23 -15 21 -12 -10 21 -20 22 -45
55 -57 74 -12 19 -21 30 -21 24z"/>
<path d="M4357 1533 c-2 -5 -3 -48 -2 -98 2 -74 5 -91 18 -93 14 -3 17 10 19
80 3 75 5 83 23 83 18 0 20 -8 23 -83 2 -72 5 -83 20 -80 14 3 17 16 18 77 2
81 16 109 40 76 10 -14 14 -40 13 -85 -2 -54 0 -66 14 -68 15 -3 17 7 17 75 0
55 -5 85 -16 101 -18 26 -46 29 -65 6 -11 -14 -13 -14 -21 0 -11 19 -39 21
-57 4 -11 -10 -14 -10 -18 0 -5 13 -20 16 -26 5z"/>
<path d="M7780 1532 c0 -7 4 -12 9 -12 5 0 7 -10 4 -22 -3 -13 -1 -19 4 -13 4
6 12 13 16 16 4 3 -2 14 -13 24 -11 10 -20 13 -20 7z"/>
<path d="M7739 1511 c11 -7 12 -13 3 -23 -7 -10 -8 -18 0 -28 8 -12 9 -12 4 3
-3 9 -1 17 4 17 6 0 10 9 10 20 0 12 -7 20 -17 20 -15 0 -15 -2 -4 -9z"/>
<path d="M7577 1419 c7 -7 15 -10 18 -7 3 3 -2 9 -12 12 -14 6 -15 5 -6 -5z"/>
<path d="M7796 1419 c-10 -6 -50 -15 -90 -19 l-71 -7 60 -1 c40 -1 73 5 100
17 22 11 36 20 30 20 -5 0 -18 -4 -29 -10z"/>
<path d="M5446 1305 c4 -8 8 -15 10 -15 2 0 4 7 4 15 0 8 -4 15 -10 15 -5 0
-7 -7 -4 -15z"/>
<path d="M5975 1281 c-133 -5 -150 -8 -151 -23 0 -10 -1 -43 -2 -74 l-2 -56
-88 4 c-48 2 -93 7 -100 12 -7 4 -12 31 -12 72 l0 64 -65 0 -64 0 2 -82 c4
-104 20 -137 91 -182 75 -48 100 -53 346 -68 283 -17 1355 -18 1490 -1 246 32
264 37 315 87 28 28 45 56 50 82 5 21 8 42 7 45 0 3 -2 31 -3 62 l-2 57 -51 0
-51 0 3 -61 c2 -34 -1 -66 -6 -71 -6 -6 -51 -13 -101 -17 l-91 -6 0 77 0 78
-248 0 c-137 0 -444 2 -683 4 -239 2 -501 1 -584 -3z"/>
<path d="M5395 1237 c-27 -5 -129 -12 -225 -16 l-175 -7 233 -4 c129 -3 236
-2 238 1 2 3 -2 13 -9 21 -9 11 -22 12 -62 5z"/>
</g>
</svg>
